<?xml version="1.0" encoding="utf-8"?>
<!-- Generator: Adobe Illustrator 16.0.4, SVG Export Plug-In . SVG Version: 6.00 Build 0)  -->
<!DOCTYPE svg PUBLIC "-//W3C//DTD SVG 1.1//EN" "http://www.w3.org/Graphics/SVG/1.1/DTD/svg11.dtd">
<svg version="1.1" xmlns="http://www.w3.org/2000/svg" xmlns:xlink="http://www.w3.org/1999/xlink" x="0px" y="0px"
	 width="648.341px" height="630.674px" viewBox="0 0 648.341 630.674" enable-background="new 0 0 648.341 630.674"
	 xml:space="preserve">
<g id="background">
</g>
<g id="image">
	<path opacity="0.25" fill="#CCE1FF" d="M131.283,590.113l-61.031-35.235c-104.062-60.08-91.011-165.024,29.149-234.398l0,0
		c14.244-8.224,29.353-15.578,45.096-22.055c117.065-48.156,499.325,116.734,490.186,161.799
		c-8.108,39.977-40.925,80.449-97.41,113.061l0,0C417.112,642.659,235.344,650.193,131.283,590.113z"/>
	<path fill="#008CE3" d="M467.507,280.198c0,0-31.686-63.636-1.335-97.607s-17.722-90.45,34.958-125.391
		C553.811,22.26,548.083,0,548.083,0s32.649,81.449,5.235,120.395c-27.414,38.947-28.861,110.441-41.157,128.689
		s-25.905,59.319-25.905,59.319L467.507,280.198z"/>
	
		<path fill="none" stroke="#B4C4F0" stroke-width="3.5849" stroke-linecap="round" stroke-linejoin="round" stroke-miterlimit="10" d="
		M482.911,245.801c0,0,8.47-62.583,30.864-119.59c12.82-32.633,38.715-93.956,35.963-114.897"/>
	<path fill="#36ADF7" d="M468.006,321.916c0,0,30.788-116.78,89.023-151.069c58.236-34.289,91.312-6.314,91.312-6.314
		s-28.556,4.306-49.405,32.989c-20.849,28.683-41.258,44.46-55.591,53.872c-14.333,9.412-33.438,60.793-33.438,60.793
		L468.006,321.916z"/>
	
		<path fill="none" stroke="#B6CFF0" stroke-width="3.5849" stroke-linecap="round" stroke-linejoin="round" stroke-miterlimit="10" d="
		M508.08,259.135c0,0,39.878-62.38,62.874-70.892c22.997-8.512,44.969-26.93,64.549-25.291"/>
	<polygon fill="#EDF7FF" points="315.676,336.033 136.917,232.827 314.56,130.264 495.077,233.258 	"/>
	<linearGradient id="SVGID_1_" gradientUnits="userSpaceOnUse" x1="315.6763" y1="353.874" x2="495.0767" y2="353.874">
		<stop  offset="0.0591" style="stop-color:#88B6EA"/>
		<stop  offset="0.9409" style="stop-color:#BAD5EB"/>
	</linearGradient>
	<polygon fill="url(#SVGID_1_)" points="315.676,336.033 315.907,474.49 495.077,371.847 495.077,233.258 	"/>
	<polygon fill="#CCE9FF" points="137.178,232.821 137.178,371.232 315.938,474.439 315.938,336.027 	"/>
	<g>
		<path fill="#DBEFFF" d="M70.664,475.596c-8.925,5.152-23.44,5.126-32.421-0.059c-8.981-5.186-9.026-13.566-0.102-18.719
			s23.44-5.127,32.421,0.059S79.589,470.442,70.664,475.596z"/>
		<path fill="#1737A2" d="M68.662,467.602l-9.182-3.106l-2.763,2.206c-1.454,1.888-2.072,2.982-1.345,4.849
			c0.612,1.568,3.341,2.223,4.884,2.363l7.117-0.101c5.162,0.122,5.795-1.645,6.141-3.206l0,0
			C73.747,468.767,71.741,468.056,68.662,467.602z"/>
		<path fill="#1737A2" d="M48.104,454.838l-9.497,1.937l-1.278,3.297c-0.306,2.362-0.29,3.62,1.278,4.866
			c1.318,1.049,4.005,0.239,5.409-0.415l6.1-3.669c4.521-2.491,4.18-4.337,3.692-5.86l0,0
			C53.085,453.286,50.994,453.682,48.104,454.838z"/>
		<path opacity="0.46" fill="#FFFFFF" d="M58.834,329.9l-0.112,0.995c0,0-0.316,3.001-3.021,1.021
			c-2.704-1.981-2.057-5.688-2.057-5.688S55.916,326.3,58.834,329.9z"/>
		<path fill="#513554" d="M55.67,331.999c3.53,2.562,3.915-0.938,3.915-0.938l0.029,0.02l0.063-1.201
			c-3.722-4.308-6.463-4.538-6.463-4.538S52.139,329.437,55.67,331.999z M53.774,326.39c0,0,2.195,0.211,5.039,3.546l-0.101,0.861
			c0,0-0.286,2.599-2.913,0.692C53.173,329.583,53.774,326.39,53.774,326.39z"/>
		<polygon fill="#513554" points="60.917,331.942 58.796,330.563 58.866,329.257 60.986,330.635 		"/>
		<path fill="#513554" d="M53.251,326.358l-0.375-0.244c-0.205-0.133-0.359-0.47-0.344-0.751l0,0
			c0.015-0.282,0.193-0.402,0.398-0.27l0.375,0.244c0.205,0.134,0.359,0.47,0.344,0.752l0,0
			C53.634,326.371,53.456,326.492,53.251,326.358z"/>
		<path fill="#513554" d="M66.965,335.275l-0.375-0.244c-0.205-0.133-0.359-0.47-0.344-0.752l0,0
			c0.015-0.281,0.193-0.402,0.398-0.269l0.375,0.244c0.205,0.133,0.359,0.47,0.344,0.751l0,0
			C67.348,335.288,67.17,335.408,66.965,335.275z"/>
		<g>
			<g>
				<g>
					<g>
						<path fill="#1737A2" d="M66.797,334.174c0,0-2.582-3.231-6.497-3.889l-0.063,1.201l0.029,0.019c0,0,0,3.75,3.559,5.796
							C67.382,339.348,66.797,334.174,66.797,334.174z M63.755,336.662c-2.647-1.522-2.647-4.309-2.647-4.309l-0.006-0.931
							c2.996,0.463,5.066,3.025,5.066,3.025S66.402,338.185,63.755,336.662z"/>
					</g>
				</g>
				<g>
					<path fill="#2C4482" d="M61.534,333.087L61.534,333.087c-0.078-0.127-0.086-0.275-0.018-0.331l0.792-0.647
						c0.068-0.056,0.187,0.003,0.264,0.13l0,0c0.078,0.128,0.085,0.276,0.018,0.332l-0.792,0.647
						C61.73,333.273,61.612,333.215,61.534,333.087z"/>
				</g>
			</g>
		</g>
		<path fill="#FCFEFF" d="M53.976,327.997L53.976,327.997c-0.078-0.128-0.086-0.276-0.018-0.332l0.792-0.647
			c0.068-0.056,0.186,0.003,0.264,0.131l0,0c0.078,0.127,0.086,0.275,0.018,0.331l-0.792,0.647
			C54.172,328.183,54.054,328.124,53.976,327.997z"/>
		<path fill="#FFC2B0" d="M47.755,346.608l2.151-9.587l5.848,3.936l-1.761,8.729C53.822,351.103,47.333,349.865,47.755,346.608z"/>
		<path fill="#FFC2B0" d="M53.268,322.689c0,0-5.193-4.905-6.717,4.899c-1.06,6.82,2.202,13.356,7.403,16.857
			c3.239,2.181,7.82,0.693,8.52-2.677c1.572-4.834,2.278-9.468,1.248-13.7c0.843-4.064-2.194-3.027-7.028-4.021L53.268,322.689z"/>
		<path fill="#1737A2" d="M47.104,341.238c0,0-6.333-3.493-4.285-12.832c2.216-10.105,11.474-7.822,16.768-7.542
			c2.344,0.124,4,0.031,6.051,2.496c1.865,2.241-0.794,6.253-3.921,6.07c-1.24-0.073-1.173,3.308-1.589,4.401
			c-0.74,1.946-2.14,2.742-2.896,4.623c-0.714,1.779-3.867,4.264-5.666,4.204C48.362,342.553,47.104,341.238,47.104,341.238z"/>
		<path fill="#1737A2" d="M66.764,335.563l-8.775-0.465c-0.312-0.017-0.554-0.285-0.538-0.597l0,0
			c0.017-0.312,0.286-0.555,0.598-0.538l8.776,0.465c0.312,0.017,0.554,0.285,0.537,0.598l0,0
			C67.345,335.339,67.077,335.58,66.764,335.563z"/>
		<path fill="#FFC2B0" d="M59.098,336.713c-0.103,1.636-1.136,2.902-2.308,2.828c-0.128-0.008-0.252-0.032-0.373-0.07
			c-0.977-0.31-1.654-1.568-1.562-3.024c0.103-1.636,1.136-2.901,2.308-2.827C58.334,333.692,59.201,335.078,59.098,336.713z"/>
		<path fill="#EDB2A1" d="M79.752,369.854L79.752,369.854c-1.286-0.441-1.976-1.855-1.535-3.141l1.897-5.521
			c0.442-1.285,1.855-1.976,3.141-1.534l0,0c1.286,0.442,1.976,1.855,1.534,3.142l-1.897,5.521
			C82.451,369.606,81.038,370.297,79.752,369.854z"/>
		<g>
			<path fill="#EDB2A1" d="M39.84,359.883c2.627,5.243,6.977,9.721,12.571,11.708c7.741,2.75,15.747-0.606,21.949-5.281
				c2.777-2.094,0.054-6.847-2.761-4.725c-5.02,3.784-11.375,7.104-17.733,4.73c-4.25-1.588-7.318-5.237-9.301-9.194
				C42.987,353.973,38.266,356.74,39.84,359.883L39.84,359.883z"/>
		</g>
		<g>
			<path fill="#3856A6" d="M52.471,407.829c3.637,10.687,3.977,22.168,3.631,33.352c-0.257,8.317-1.564,16.707-1.36,25.026
				c0.134,5.463,8.638,5.483,8.504,0c-0.21-8.567,1.148-17.204,1.382-25.772c0.318-11.639-0.175-23.754-3.957-34.866
				C58.918,400.417,50.702,402.629,52.471,407.829L52.471,407.829z"/>
		</g>
		<g>
			<path fill="#3856A6" d="M35.366,398.248c1.916,6.977,2.782,14.171,3.477,21.355c0.406,4.198,0.888,8.188,0.446,12.374
				c-0.891,8.445-2.458,17.051-2.405,25.56c0.035,5.471,8.539,5.482,8.504,0c-0.055-8.646,1.555-17.385,2.448-25.969
				c0.449-4.316-0.148-8.531-0.575-12.848c-0.755-7.63-1.659-15.323-3.694-22.733C42.119,390.717,33.913,392.955,35.366,398.248
				L35.366,398.248z"/>
		</g>
		<g>
			<path fill="#3856A6" d="M42.334,409.49L42.334,409.49c0.785,0.88-2.588-3.401-1.579-2.791c2.103,1.271,13.909,9.291,16.365,9.332
				c2.968,0.05,1.238-2.819,3.447-4.801c2.096-1.881,2.589-4.937,2.794-7.745c0.057-0.776,0.095-1.587-0.215-2.301
				c-0.335-0.771-1.028-1.317-1.698-1.825c-5.244-3.97-15.561-13.794-22.888-10.652C30.094,392.338,38.577,405.277,42.334,409.49z"
				/>
		</g>
		<path fill="#18BDF7" d="M36.18,346.66c-1.553,2.002-1.369,3.239-1.294,5.973c0.073,2.672,1.884,4.984,4.458,5.707l26.288,7.372
			c0,0,1.511-10.113-3.674-13.158c-2.793-1.64-7.126-4.263-10.53-6.335C46.428,343.176,39.767,342.035,36.18,346.66z"/>
		<path fill="#18BDF7" d="M34.793,394.178c-1.674-0.646-1.274-29.41,0.23-45.295l29.591,14.079
			c-0.149,13.522-1.857,24.193-0.237,40.673L34.793,394.178z"/>
		<path fill="#18BDF7" d="M54.505,406.576c-7.311-2.666-14.274-5.586-18.367-10.604c-2.01-1.16-1.755-3.206,0.565-4.546l0,0
			c2.32-1.34,5.863-1.486,7.873-0.326l18.367,10.604c2.009,1.16,1.755,3.205-0.565,4.545l0,0
			C60.058,407.59,56.515,407.736,54.505,406.576z"/>
		<path fill="#18BDF7" d="M64.615,362.962l-4.876-2.32c-0.2,13.182-1.815,23.771-0.225,39.953l-0.081-0.025
			c0.034,0.915-0.617,1.89-1.919,2.641l0,0c-2.32,1.34-5.863,1.487-7.873,0.327c-3.51-1.28-6.936-2.622-10.006-4.223
			c4.037,3.093,9.354,5.25,14.87,7.262c2.009,1.16,5.552,1.014,7.873-0.326l0,0c1.302-0.752,1.954-1.726,1.919-2.642l0.081,0.026
			C62.758,387.155,64.466,376.484,64.615,362.962z"/>
		<path fill="#FFFFFF" d="M58.623,349.89c-6.788-1.021-11.374,3.247-12.995-6.531l0,0c0.991-0.614,2.268-0.316,2.931,0.643
			c1.165,1.683,3.643,2.747,6.381,2.411c0.819-0.101,1.625,0.276,2.071,0.971L58.623,349.89z"/>
		<g>
			<path fill="#EDB2A1" d="M58.421,359.376c0.321,4.387,0.307,8.988,1.832,13.17c1.423,3.901,3.23,8.904,6.46,11.688
				c8.555,7.375,14.491-8.936,16.246-14.454c1.069-3.364-4.211-4.804-5.276-1.455c-1.18,3.709-2.496,8.384-5.345,11.229
				c-1.36,1.359-1.779,1.18-2.994-0.553c-4.213-6.008-4.935-12.58-5.451-19.626C63.637,355.885,58.163,355.857,58.421,359.376
				L58.421,359.376z"/>
		</g>
		<path fill="#18BDF7" d="M56.902,359.29c1.655,13.992,6.067,22.892,12.179,27.417c3.214,1.779,6.22-3.292,4.992-6.354
			c-6.086-5.411-8.223-13.851-8.802-23.485c-0.796-1.955-3.057-3.012-5.23-2.445v0.001C57.776,355.014,56.392,357.16,56.902,359.29z
			"/>
		<path fill="#FFFFFF" d="M73.945,378.424c0.513,2.153,1.174,6.92-2.428,8.647c-0.535,0.257-1.161,0.25-1.703,0.008l-1.101-0.493
			c-1.111-0.497-1.55-1.843-0.945-2.898c0.778-1.356,1.717-3.267,2.145-5.189c0.273-1.23,1.542-1.957,2.726-1.522l0.017,0.006
			C73.299,377.218,73.786,377.757,73.945,378.424z"/>
		<g>
			<g>
				<path fill="#18BDF7" d="M79.683,369.597l-5.929-4.422c-0.354-0.258-0.46-0.832-0.238-1.282l5.811-11.79
					c0.222-0.45,0.688-0.606,1.042-0.35l5.897,4.302c0.353,0.257,0.459,0.831,0.237,1.282L80.72,369.07
					c-0.146,0.297-0.296,0.334-0.597,0.407L79.683,369.597z"/>
				<path fill="#18BDF7" d="M80.366,357.675c0,0-7.072,6.668-6.85,6.218l5.816-12.197l0.556-0.056
					c0.163-0.03,0.332,0.005,0.481,0.113l5.897,4.302c0.172,0.125,0.286,0.326,0.331,0.552L80.366,357.675z"/>
				<path fill="#1737A2" d="M79.078,369.524l-5.879-4.298c-0.353-0.258-0.441-0.829-0.219-1.279l5.811-11.79
					c0.222-0.451,0.679-0.608,1.032-0.351l5.874,4.298c0.354,0.257,0.437,0.828,0.215,1.278l-5.812,11.79
					C79.879,369.624,79.431,369.782,79.078,369.524z"/>
				<path fill="#45446C" d="M85.682,358.318l-0.332,0.674c-0.023,0.047,0.003,0.074,0.06,0.061l-0.008-0.008
					c0.057-0.014,0.098-0.066,0.121-0.113l0.332-0.674c0.023-0.047,0.02-0.07-0.037-0.057l-0.003,0.006
					C85.758,358.221,85.706,358.271,85.682,358.318z"/>
				<path fill="#45446C" d="M85.101,359.498l-0.332,0.673c-0.023,0.047,0.003,0.074,0.06,0.061l-0.008-0.008
					c0.057-0.014,0.098-0.066,0.121-0.113l0.332-0.674c0.023-0.047,0.02-0.07-0.037-0.057l-0.003,0.006
					C85.177,359.399,85.125,359.451,85.101,359.498z"/>
				<path fill="#DBEDFF" d="M80.001,367.582l-5.79-4.223l5.092-10.4l5.754,4.196l-5.143,10.127
					C79.872,367.37,80.08,367.64,80.001,367.582z"/>
				<path fill="#8787CC" d="M83.443,355.404l-1.819-1.327c-0.063-0.047-0.083-0.151-0.043-0.232l0,0
					c0.04-0.081,0.125-0.11,0.189-0.063l1.819,1.326c0.064,0.047,0.083,0.151,0.043,0.233l0,0
					C83.591,355.422,83.506,355.45,83.443,355.404z"/>
			</g>
			<path fill="#EDB2A1" d="M82.032,367.87l0.708-1.475c-0.569-0.015-1.232,2.31-1.219,1.839l0.021-6.57
				c0.013-0.471,0.489-0.844,1.058-0.828l0,0c0.569,0.016,1.023,0.413,1.01,0.884l-0.09,3.245
				C83.507,365.436,82.601,367.886,82.032,367.87z"/>
		</g>
	</g>
	<polygon fill="#EDF7FF" points="236.2,542.446 122.654,476.891 235.491,411.745 350.152,477.165 	"/>
	<linearGradient id="SVGID_2_" gradientUnits="userSpaceOnUse" x1="236.1997" y1="541.6982" x2="350.1519" y2="541.6982">
		<stop  offset="0.0591" style="stop-color:#88B6EA"/>
		<stop  offset="0.9409" style="stop-color:#BAD5EB"/>
	</linearGradient>
	<polygon fill="url(#SVGID_2_)" points="236.2,542.446 236.305,606.231 350.152,541.011 350.152,477.165 	"/>
	<polygon fill="#CCE9FF" points="122.82,476.887 122.82,540.704 236.366,606.26 236.366,542.442 	"/>
	<g>
		<path opacity="0.4" fill="#A8C4E5" d="M419.058,267.056l-102.373-57.955c-1.186-0.671-1.059-1.858,0.281-2.639l48.023-27.989
			c1.339-0.781,3.404-0.871,4.589-0.2l102.374,57.955c1.185,0.671,1.058,1.858-0.281,2.639l-48.023,27.988
			C422.308,267.637,420.243,267.727,419.058,267.056z"/>
		<g>
			<path fill="#E5F2FF" d="M427.801,155.153c2.138,1.235,3.824,3.931,3.768,6.024l-2.542,94.971
				c-0.055,2.095-1.833,2.79-3.971,1.555l-157.501-90.979c-2.138-1.235-3.825-3.931-3.769-6.025l2.54-94.972
				c0.057-2.094,1.833-2.79,3.971-1.555L427.801,155.153z"/>
		</g>
		<linearGradient id="SVGID_3_" gradientUnits="userSpaceOnUse" x1="267.4136" y1="147.9111" x2="435.5708" y2="147.9111">
			<stop  offset="0" style="stop-color:#E5F2FF"/>
			<stop  offset="0.3563" style="stop-color:#E2F0FE"/>
			<stop  offset="0.6047" style="stop-color:#D9E8FA"/>
			<stop  offset="0.8197" style="stop-color:#CADAF5"/>
			<stop  offset="1" style="stop-color:#B6C9ED"/>
		</linearGradient>
		<path fill="url(#SVGID_3_)" d="M435.567,135.063c0-0.002,0.001-0.004,0.001-0.007c0-0.005-0.001-0.011-0.001-0.016
			c-0.001-0.013-0.001-0.026-0.002-0.039c-0.003-0.056-0.007-0.111-0.012-0.167c-0.004-0.045-0.01-0.09-0.016-0.135
			c0-0.006-0.001-0.013-0.002-0.02c0-0.005-0.001-0.01-0.001-0.015c-0.008-0.054-0.016-0.108-0.024-0.163
			c-0.009-0.054-0.019-0.108-0.029-0.163c-0.002-0.008-0.004-0.015-0.005-0.023c-0.002-0.008-0.004-0.015-0.005-0.023
			c-0.008-0.038-0.016-0.076-0.024-0.114c-0.013-0.054-0.025-0.107-0.039-0.161c-0.007-0.025-0.015-0.051-0.021-0.076
			c-0.003-0.011-0.006-0.022-0.009-0.033c-0.005-0.018-0.01-0.035-0.015-0.052c-0.016-0.054-0.032-0.108-0.049-0.162
			c-0.017-0.051-0.034-0.103-0.052-0.153c-0.001-0.002-0.001-0.004-0.002-0.006c0-0.001-0.001-0.003-0.001-0.004
			c-0.02-0.055-0.039-0.109-0.06-0.164s-0.042-0.108-0.063-0.162c-0.006-0.014-0.013-0.028-0.019-0.043
			c-0.004-0.01-0.009-0.021-0.013-0.031c-0.012-0.029-0.024-0.058-0.036-0.087c-0.022-0.051-0.046-0.103-0.069-0.154
			c-0.019-0.039-0.037-0.078-0.056-0.117c-0.003-0.005-0.006-0.011-0.008-0.016c-0.003-0.006-0.006-0.012-0.009-0.018
			c-0.023-0.049-0.048-0.098-0.073-0.147c-0.024-0.047-0.049-0.094-0.074-0.14c-0.011-0.02-0.021-0.04-0.032-0.059
			c-0.005-0.009-0.01-0.017-0.015-0.026c-0.01-0.018-0.02-0.037-0.03-0.055c-0.027-0.048-0.055-0.097-0.084-0.145
			c-0.028-0.048-0.057-0.096-0.087-0.144c-0.003-0.004-0.006-0.009-0.009-0.014c-0.004-0.007-0.009-0.015-0.014-0.021
			c-0.031-0.051-0.062-0.102-0.096-0.151c-0.031-0.047-0.063-0.093-0.095-0.139c-0.021-0.031-0.042-0.062-0.063-0.093
			c-0.01-0.015-0.02-0.029-0.03-0.043c-0.053-0.075-0.108-0.148-0.164-0.222c-0.019-0.024-0.035-0.049-0.054-0.072
			c-0.003-0.004-0.006-0.007-0.009-0.011c-0.071-0.092-0.146-0.183-0.221-0.272c-0.011-0.013-0.022-0.025-0.033-0.038
			c-0.01-0.011-0.02-0.022-0.029-0.034c-0.026-0.03-0.053-0.061-0.079-0.091c-0.045-0.05-0.09-0.1-0.136-0.149
			c-0.017-0.019-0.034-0.037-0.052-0.055c-0.01-0.01-0.019-0.019-0.027-0.029c-0.017-0.017-0.033-0.035-0.05-0.052
			c-0.044-0.045-0.089-0.09-0.135-0.135c-0.034-0.034-0.069-0.067-0.104-0.1c-0.007-0.006-0.013-0.012-0.019-0.018
			c-0.006-0.005-0.012-0.011-0.018-0.017c-0.048-0.045-0.097-0.089-0.146-0.133c-0.051-0.045-0.102-0.09-0.153-0.133
			c-0.002-0.001-0.003-0.002-0.004-0.003s-0.002-0.002-0.003-0.003c-0.05-0.042-0.101-0.083-0.15-0.124
			c-0.054-0.042-0.106-0.084-0.161-0.125c-0.006-0.005-0.013-0.009-0.02-0.015c-0.008-0.005-0.015-0.011-0.022-0.017
			c-0.039-0.029-0.078-0.058-0.117-0.085c-0.054-0.038-0.106-0.075-0.161-0.111c-0.015-0.01-0.029-0.02-0.045-0.029
			c-0.005-0.003-0.01-0.007-0.015-0.011c-0.001,0-0.003-0.001-0.005-0.002c-0.031-0.021-0.062-0.042-0.095-0.062
			c-0.053-0.034-0.106-0.066-0.16-0.098c-0.013-0.007-3.802-2.196-3.814-2.203l-0.016,0.01l-153.13-88.454
			c-0.001-0.001-0.008-0.004-0.01-0.006l-0.232-0.134c-0.001,0-0.002,0-0.002,0c-0.178-0.103-0.388-0.224-0.412-0.237
			c-0.054-0.029-0.106-0.057-0.16-0.084c-0.054-0.027-0.107-0.054-0.161-0.078c-0.054-0.025-0.107-0.049-0.16-0.071
			c-0.056-0.023-0.111-0.045-0.166-0.066c-0.055-0.021-0.109-0.04-0.164-0.059c-0.059-0.02-0.116-0.037-0.174-0.054
			c-0.004-0.001-0.007-0.001-0.01-0.002l-0.002,0c-0.006-0.002-0.011-0.002-0.016-0.004c-0.05-0.014-0.1-0.027-0.149-0.039
			c-0.024-0.006-0.05-0.01-0.074-0.015c-0.021-0.004-0.041-0.009-0.062-0.013c-0.016-0.003-0.032-0.007-0.048-0.01
			c-0.061-0.011-0.12-0.019-0.179-0.026c-0.005,0-0.01-0.001-0.015-0.002l-0.002,0c-0.071-0.008-0.14-0.013-0.208-0.016
			c-0.008,0-0.015,0-0.022,0c-0.031-0.001-0.062,0-0.093,0c-0.036,0-0.073-0.001-0.108,0c-0.011,0-0.021,0.002-0.03,0.003
			c-0.05,0.003-0.098,0.009-0.146,0.015c-0.026,0.003-0.054,0.004-0.079,0.008c-0.006,0-0.011,0.003-0.017,0.004
			c-0.095,0.016-0.187,0.038-0.275,0.066c-0.006,0.002-0.013,0.002-0.019,0.004c-0.01,0.003-0.019,0.009-0.028,0.013
			c-0.114,0.039-0.224,0.086-0.325,0.146l-3.918,2.291c0.1-0.058,0.207-0.104,0.319-0.143c0.043-0.015,0.087-0.027,0.132-0.039
			c0.054-0.014,0.107-0.029,0.163-0.039c0.065-0.012,0.133-0.021,0.202-0.028c0.025-0.002,0.051-0.006,0.077-0.008
			c0.096-0.006,0.194-0.005,0.296,0c0.019,0.001,0.038,0.003,0.057,0.004c0.103,0.008,0.208,0.02,0.315,0.04
			c0.008,0.001,0.016,0.003,0.023,0.004c0.113,0.021,0.229,0.049,0.347,0.083c0.01,0.003,0.02,0.006,0.029,0.009
			c0.115,0.035,0.232,0.076,0.353,0.123c0.012,0.004,0.023,0.009,0.035,0.014c0.126,0.051,0.254,0.108,0.384,0.174
			c0.053,0.027,0.105,0.055,0.159,0.083c0.041,0.022,0.082,0.046,0.124,0.07l0.864,0.5l152.887,88.313l-0.143,0.087
			c0,0,3.991,2.119,4.044,2.153c0.054,0.034,0.106,0.068,0.159,0.104c0.055,0.036,0.107,0.073,0.161,0.111s0.106,0.077,0.159,0.117
			c0.022,0.017,0.045,0.034,0.066,0.051c0.085,0.065,0.169,0.132,0.251,0.202l0,0l0.001,0c0.084,0.07,0.166,0.144,0.246,0.218
			c0.011,0.01,0.021,0.019,0.031,0.028c0.077,0.072,0.153,0.145,0.228,0.22c0.012,0.011,0.023,0.023,0.034,0.034
			c0.073,0.074,0.145,0.149,0.214,0.226c0.013,0.014,0.025,0.027,0.038,0.041c0.069,0.077,0.138,0.155,0.204,0.234
			c0.034,0.041,0.067,0.083,0.101,0.125c0.041,0.05,0.082,0.1,0.122,0.151c0.046,0.06,0.09,0.12,0.135,0.181
			c0.028,0.04,0.059,0.079,0.086,0.118c0.025,0.035,0.048,0.07,0.072,0.105c0.043,0.062,0.086,0.125,0.127,0.188
			c0.011,0.017,0.021,0.034,0.032,0.051c0.056,0.087,0.109,0.174,0.161,0.263c0.005,0.007,0.009,0.015,0.013,0.022
			c0.055,0.093,0.107,0.187,0.157,0.281c0.005,0.01,0.011,0.02,0.016,0.029c0.049,0.092,0.095,0.184,0.14,0.277
			c0.005,0.012,0.011,0.023,0.017,0.036c0.043,0.091,0.084,0.183,0.123,0.274c0.006,0.014,0.012,0.028,0.018,0.042
			c0.038,0.091,0.074,0.183,0.107,0.274c0.005,0.014,0.011,0.028,0.016,0.042c0.033,0.092,0.063,0.184,0.093,0.275
			c0.004,0.013,0.008,0.026,0.012,0.04c0.028,0.092,0.054,0.184,0.077,0.275c0.003,0.013,0.006,0.024,0.009,0.037
			c0.022,0.092,0.044,0.185,0.062,0.276c0.009,0.046,0.017,0.092,0.024,0.137c0.009,0.055,0.017,0.108,0.023,0.163
			c0.008,0.057,0.014,0.113,0.02,0.169c0.005,0.056,0.009,0.112,0.012,0.168c0.004,0.061,0.006,0.121,0.006,0.18
			c0.001,0.046,0,0.093-0.001,0.139c0,0-0.003,0.091-0.007,0.249l-0.401,15.003c-0.135-0.078-0.825-0.475-0.837-0.482l-4.08,2.196
			c0,0,1.135,0.658,1.188,0.691c0.053,0.034,0.106,0.068,0.159,0.104c0.054,0.036,0.107,0.073,0.161,0.111
			c0.053,0.038,0.106,0.077,0.159,0.117c0.022,0.017,0.044,0.034,0.066,0.051c0.085,0.065,0.169,0.132,0.251,0.202l0,0l0.001,0
			c0.083,0.071,0.165,0.144,0.246,0.218c0.011,0.01,0.021,0.019,0.031,0.028c0.077,0.072,0.152,0.145,0.228,0.22
			c0.012,0.012,0.022,0.023,0.034,0.035c0.072,0.074,0.144,0.149,0.214,0.226c0.013,0.014,0.025,0.027,0.038,0.042
			c0.069,0.077,0.137,0.155,0.204,0.234c0.034,0.041,0.067,0.083,0.101,0.125c0.041,0.05,0.082,0.1,0.122,0.151
			c0.046,0.06,0.09,0.121,0.134,0.181c0.029,0.04,0.059,0.079,0.087,0.118c0.024,0.035,0.048,0.071,0.072,0.106
			c0.043,0.062,0.085,0.125,0.126,0.188c0.011,0.017,0.021,0.034,0.032,0.051c0.056,0.087,0.11,0.175,0.162,0.263
			c0.004,0.007,0.009,0.015,0.013,0.022c0.055,0.093,0.106,0.187,0.157,0.281c0.005,0.01,0.01,0.02,0.015,0.029
			c0.049,0.092,0.096,0.185,0.14,0.277c0.006,0.012,0.012,0.023,0.018,0.036c0.043,0.091,0.084,0.183,0.123,0.274
			c0.006,0.014,0.012,0.028,0.018,0.042c0.038,0.091,0.073,0.183,0.107,0.274c0.005,0.014,0.01,0.028,0.015,0.042
			c0.033,0.092,0.064,0.184,0.093,0.275c0.004,0.013,0.009,0.027,0.013,0.04c0.028,0.092,0.054,0.184,0.077,0.276
			c0.003,0.012,0.006,0.024,0.009,0.036c0.022,0.093,0.043,0.185,0.061,0.276c0.009,0.046,0.018,0.092,0.025,0.138
			c0.005,0.033,0.01,0.066,0.015,0.099l-1.901,71.012c-0.012,0.445-1.357,3.237-0.997,3.026l1.005-0.915l-0.574,21.452
			c-0.012,0.445-1.358,3.237-0.997,3.026l3.684-3.354c0.779-0.709,1.225-1.723,1.255-2.857l2.459-91.85
			c0.012-0.445,0.03-1.113,0.03-1.113c0.001-0.046,0.001-0.092,0.001-0.139c-0.001-0.039-0.002-0.079-0.004-0.119
			c0-0.002,0.001-0.004,0.001-0.006C435,158.615,435,158.609,435,158.604c0-0.013,0-0.026-0.001-0.039
			c-0.003-0.056-0.007-0.112-0.013-0.168c-0.004-0.044-0.009-0.09-0.015-0.135c-0.001-0.006-0.001-0.013-0.002-0.02
			c-0.001-0.005-0.001-0.01-0.002-0.015c-0.003-0.021-0.006-0.042-0.009-0.063l0.581-21.731c0.013-0.445,0.03-1.114,0.03-1.114
			c0.001-0.046,0.002-0.092,0.001-0.138C435.571,135.142,435.569,135.103,435.567,135.063z"/>
		<g>
			<g>
				<g>
					<path fill="#1737A2" d="M427.912,144.078c2.138,1.234,3.611,0.02,3.555,2.113l-2.145,98.916
						c-0.054,2.095-2.017,2.756-4.154,1.521l-157.502-90.979c-2.138-1.235-3.824-3.931-3.769-6.025l2.54-94.972
						c0.057-2.094,1.833-2.79,3.971-1.555L427.912,144.078z"/>
				</g>
			</g>
		</g>
		<g>
			<g>
				<g>
					<path fill="#1737A2" d="M427.912,131.587c2.138,1.234,3.824,3.931,3.768,6.025l-2.357,95.004
						c-0.054,2.095-2.017,2.756-4.154,1.521l-157.502-90.979c-2.138-1.235-3.688,3.429-3.631,1.335l2.402-102.332
						c0.057-2.094,1.833-2.79,3.971-1.555L427.912,131.587z"/>
				</g>
			</g>
		</g>
		<path fill="#18BDF7" d="M427.629,143.134c0.069-1.755-1.515-4.109-3.54-5.26L274.901,53.086c-2.025-1.15-3.721-0.66-3.79,1.095
			l-0.454,11.502c-0.063,0.188-0.103,0.396-0.111,0.628l-2.054,79.785c-0.07,1.755,2.22,4.977,4.244,6.127l147.394,83.767
			c2.025,1.151,3.723,0.662,3.79-1.095l0.454-11.501c0.063-0.188,0.103-0.396,0.112-0.63L427.629,143.134z"/>
		<path fill="#1737A2" d="M425.761,264.149l-0.046-6.24l-6.052,3.875l-1.299-2.993L266.617,171.18
			c-1.828-1.055-5.459-0.921-7.569,0.297l-65.742,37.72v-1.05l-9.984,4.852l-1.404-0.567l0.19,4.608
			c0.153,1.005,0.539,1.419,1.158,1.777l157.916,91.411c1.827,1.056,5.052,1.043,7.162-0.176l75.67-43.627
			c1.151-0.665,1.74-1.491,1.742-2.304L425.761,264.149z"/>
		<path fill="#D4E3F4" d="M341.095,304.097l-157.911-91.17c-1.827-1.055-1.596-2.916,0.515-4.134l75.668-43.688
			c2.11-1.218,5.333-1.352,7.16-0.296l157.911,91.17c1.828,1.055,1.597,2.916-0.514,4.134L348.256,303.8
			C346.145,305.018,342.923,305.151,341.095,304.097z"/>
		<g opacity="0.56">
			<g>
				<g>
					<path fill="#7FB0F0" d="M268.828,181.699c-0.229,0.132-0.697,0.078-1.042-0.121l-9.587-5.532c-0.346-0.2-0.44-0.47-0.211-0.603
						l6.351-3.669c0.23-0.133,0.697-0.078,1.043,0.122l9.587,5.533c0.346,0.199,0.44,0.469,0.21,0.602L268.828,181.699z"/>
					<path fill="#7FB0F0" d="M279.95,198.218c-0.231,0.134-0.695,0.082-1.046-0.121l-9.586-5.532
						c-0.346-0.199-0.438-0.467-0.206-0.601l6.354-3.67c0.226-0.13,0.69-0.078,1.036,0.122l9.586,5.532
						c0.351,0.202,0.44,0.47,0.215,0.601L279.95,198.218z"/>
					<path fill="#7FB0F0" d="M274.328,205.076c-0.23,0.133-0.696,0.077-1.041-0.123l-9.588-5.533
						c-0.34-0.196-0.443-0.467-0.213-0.601l6.354-3.67c0.225-0.13,0.698-0.073,1.038,0.123l9.589,5.533
						c0.345,0.199,0.439,0.47,0.214,0.6L274.328,205.076z"/>
					<path fill="#7FB0F0" d="M259.116,206.399c-0.228,0.131-0.695,0.078-1.039-0.12l-9.587-5.533c-0.342-0.197-0.437-0.469-0.21-0.6
						l6.353-3.67c0.229-0.131,0.699-0.077,1.041,0.12l9.588,5.533c0.343,0.198,0.435,0.469,0.207,0.6L259.116,206.399z"/>
					<path fill="#7FB0F0" d="M232.732,202.551c-0.229,0.132-0.695,0.078-1.041-0.122l-9.587-5.533
						c-0.346-0.2-0.441-0.469-0.212-0.602l7.458-4.309c0.225-0.129,0.696-0.077,1.042,0.123l9.587,5.532
						c0.346,0.2,0.436,0.472,0.212,0.602L232.732,202.551z"/>
					<path fill="#7FB0F0" d="M249.262,212.089c-0.229,0.133-0.782,0.028-1.237-0.235l-12.561-7.249
						c-0.45-0.259-0.635-0.581-0.405-0.713l7.459-4.309c0.224-0.129,0.785-0.026,1.234,0.233l12.561,7.249
						c0.456,0.263,0.633,0.585,0.408,0.714L249.262,212.089z"/>
					<path fill="#7FB0F0" d="M331.779,259.777c-0.191,0.109-0.627,0.037-0.973-0.162l-9.579-5.529
						c-0.35-0.202-0.479-0.455-0.289-0.565l2.758-1.593c0.189-0.109,0.63-0.036,0.979,0.166l9.58,5.528
						c0.345,0.199,0.47,0.452,0.28,0.561L331.779,259.777z"/>
					<path fill="#7FB0F0" d="M344.587,267.361c-0.19,0.109-0.627,0.037-0.972-0.162l-9.58-5.528
						c-0.35-0.202-0.479-0.455-0.288-0.565l2.758-1.593c0.188-0.109,0.629-0.036,0.979,0.167l9.58,5.528
						c0.346,0.199,0.47,0.452,0.281,0.561L344.587,267.361z"/>
					<path fill="#7FB0F0" d="M358.167,275.021c-0.184,0.105-0.615,0.028-0.961-0.171l-9.583-5.529
						c-0.344-0.199-0.481-0.45-0.298-0.557l2.656-1.535c0.182-0.104,0.619-0.026,0.963,0.172l9.583,5.53
						c0.346,0.199,0.478,0.45,0.296,0.555L358.167,275.021z"/>
					<path fill="#7FB0F0" d="M349.815,264.438c-0.184,0.105-0.615,0.028-0.96-0.171l-9.583-5.53
						c-0.344-0.199-0.481-0.45-0.298-0.556l2.655-1.535c0.183-0.105,0.62-0.027,0.964,0.172l9.583,5.53
						c0.346,0.199,0.478,0.45,0.295,0.555L349.815,264.438z"/>
					<path fill="#7FB0F0" d="M315.208,250.141c-0.229,0.132-0.7,0.075-1.047-0.125l-62.385-36.002
						c-0.341-0.196-0.442-0.47-0.213-0.602l7.458-4.309c0.225-0.129,0.703-0.074,1.043,0.123l62.386,36.002
						c0.347,0.2,0.44,0.475,0.217,0.604L315.208,250.141z"/>
					<path fill="#7FB0F0" d="M247.551,209.711c-0.015,0.008-0.06-0.004-0.1-0.028l-7.329-4.229
						c-0.039-0.023-0.062-0.049-0.048-0.058l0.464-0.268c0.014-0.008,0.06,0.005,0.1,0.028l7.328,4.229
						c0.041,0.023,0.062,0.049,0.049,0.058L247.551,209.711z"/>
					<path fill="#7FB0F0" d="M228.761,198.059c-0.014,0.008-0.04,0.007-0.058-0.003l-3.11-1.796c-0.018-0.01-0.02-0.024-0.006-0.033
						l0.464-0.268c0.014-0.008,0.04-0.006,0.057,0.003l3.111,1.796c0.017,0.01,0.02,0.025,0.006,0.033L228.761,198.059z"/>
					<path fill="#7FB0F0" d="M272.257,213.978c-0.227,0.131-0.695,0.078-1.042-0.123l-9.587-5.532
						c-0.34-0.196-0.439-0.471-0.213-0.602l6.353-3.67c0.229-0.131,0.704-0.074,1.045,0.122l9.586,5.532
						c0.348,0.201,0.439,0.471,0.211,0.603L272.257,213.978z"/>
					<path fill="#7FB0F0" d="M285.457,221.595c-0.227,0.131-0.698,0.076-1.038-0.121l-9.585-5.532
						c-0.344-0.198-0.441-0.471-0.215-0.602l6.354-3.67c0.228-0.131,0.701-0.076,1.045,0.122l9.585,5.532
						c0.341,0.196,0.435,0.469,0.207,0.601L285.457,221.595z"/>
					<path fill="#7FB0F0" d="M298.658,229.212c-0.228,0.131-0.696,0.077-1.039-0.121l-9.587-5.533
						c-0.343-0.197-0.437-0.468-0.209-0.599l6.353-3.67c0.228-0.132,0.697-0.079,1.04,0.119l9.588,5.533
						c0.342,0.198,0.435,0.469,0.207,0.601L298.658,229.212z"/>
					<path fill="#7FB0F0" d="M311.859,236.831c-0.228,0.131-0.694,0.078-1.039-0.121l-9.588-5.533
						c-0.347-0.2-0.44-0.471-0.213-0.602l6.353-3.67c0.228-0.132,0.697-0.078,1.044,0.122l9.588,5.533
						c0.345,0.199,0.436,0.47,0.208,0.601L311.859,236.831z"/>
					<path fill="#7FB0F0" d="M325.061,244.449c-0.228,0.131-0.7,0.075-1.047-0.125l-9.584-5.531
						c-0.342-0.197-0.436-0.468-0.209-0.599l6.353-3.67c0.229-0.132,0.698-0.078,1.041,0.119l9.584,5.531
						c0.346,0.2,0.442,0.474,0.215,0.605L325.061,244.449z"/>
					<path fill="#7FB0F0" d="M338.262,252.062c-0.227,0.131-0.697,0.077-1.041-0.122l-9.585-5.531
						c-0.345-0.199-0.439-0.471-0.213-0.602l6.353-3.67c0.228-0.132,0.699-0.078,1.045,0.122l9.584,5.531
						c0.345,0.198,0.438,0.471,0.21,0.602L338.262,252.062z"/>
					<path fill="#7FB0F0" d="M367.996,269.22c-0.227,0.131-0.696,0.077-1.041-0.122l-26.119-15.072
						c-0.345-0.199-0.438-0.47-0.211-0.601l6.353-3.67c0.228-0.131,0.697-0.078,1.043,0.121l26.118,15.073
						c0.346,0.199,0.438,0.471,0.21,0.602L367.996,269.22z"/>
					<path fill="#7FB0F0" d="M287.463,212.651c-0.229,0.133-0.688,0.08-1.035-0.12l-9.589-5.533c-0.344-0.199-0.44-0.466-0.21-0.599
						l6.354-3.671c0.226-0.13,0.692-0.077,1.037,0.122l9.588,5.533c0.347,0.2,0.435,0.467,0.21,0.598L287.463,212.651z"/>
					<path fill="#7FB0F0" d="M300.667,220.271c-0.23,0.133-0.696,0.076-1.038-0.122l-9.592-5.535
						c-0.341-0.197-0.438-0.465-0.207-0.598l6.354-3.671c0.226-0.13,0.693-0.076,1.034,0.121l9.591,5.535
						c0.342,0.197,0.438,0.468,0.212,0.598L300.667,220.271z"/>
					<path fill="#7FB0F0" d="M313.868,227.888c-0.23,0.133-0.698,0.075-1.04-0.123l-9.586-5.532
						c-0.34-0.196-0.445-0.469-0.215-0.602l6.354-3.67c0.226-0.13,0.701-0.071,1.041,0.125l9.586,5.532
						c0.343,0.198,0.439,0.47,0.215,0.6L313.868,227.888z"/>
					<path fill="#7FB0F0" d="M327.066,235.505c-0.23,0.133-0.694,0.077-1.038-0.122l-9.585-5.531
						c-0.346-0.199-0.443-0.467-0.213-0.601l6.354-3.67c0.225-0.13,0.693-0.076,1.038,0.123l9.585,5.531
						c0.344,0.198,0.438,0.469,0.213,0.599L327.066,235.505z"/>
					<path fill="#7FB0F0" d="M340.272,243.12c-0.229,0.133-0.696,0.076-1.038-0.122l-9.591-5.535
						c-0.345-0.199-0.44-0.466-0.21-0.599l6.354-3.671c0.225-0.13,0.69-0.078,1.036,0.122l9.59,5.535
						c0.343,0.198,0.438,0.469,0.213,0.599L340.272,243.12z"/>
					<path fill="#7FB0F0" d="M353.468,250.735c-0.229,0.133-0.693,0.078-1.037-0.121l-9.583-5.53
						c-0.349-0.201-0.446-0.469-0.216-0.603l6.354-3.67c0.225-0.13,0.693-0.076,1.041,0.125l9.583,5.53
						c0.345,0.198,0.437,0.468,0.212,0.598L353.468,250.735z"/>
					<path fill="#7FB0F0" d="M366.669,258.353c-0.23,0.133-0.695,0.077-1.037-0.121l-9.591-5.535
						c-0.343-0.197-0.438-0.464-0.207-0.597l6.354-3.671c0.225-0.13,0.69-0.078,1.032,0.12l9.591,5.534
						c0.342,0.198,0.437,0.468,0.211,0.598L366.669,258.353z"/>
					<path fill="#7FB0F0" d="M293.089,205.794c-0.232,0.134-0.699,0.08-1.045-0.12l-9.587-5.533c-0.341-0.196-0.435-0.466-0.203-0.6
						l6.353-3.67c0.226-0.13,0.693-0.077,1.035,0.12l9.586,5.533c0.347,0.199,0.439,0.469,0.214,0.6L293.089,205.794z"/>
					<path fill="#7FB0F0" d="M306.287,213.411c-0.231,0.134-0.7,0.079-1.041-0.118l-9.587-5.533
						c-0.344-0.199-0.439-0.469-0.208-0.603l6.354-3.67c0.225-0.13,0.694-0.076,1.039,0.123l9.586,5.533
						c0.342,0.196,0.437,0.467,0.211,0.598L306.287,213.411z"/>
					<path fill="#7FB0F0" d="M319.489,221.029c-0.231,0.134-0.698,0.08-1.046-0.121l-9.586-5.532
						c-0.342-0.197-0.436-0.467-0.204-0.601l6.353-3.67c0.226-0.13,0.693-0.076,1.036,0.121l9.585,5.532
						c0.348,0.2,0.44,0.47,0.215,0.601L319.489,221.029z"/>
					<path fill="#7FB0F0" d="M332.686,228.645c-0.231,0.134-0.694,0.082-1.04-0.118l-9.588-5.533
						c-0.346-0.199-0.44-0.469-0.209-0.603l6.354-3.67c0.226-0.13,0.694-0.076,1.039,0.124l9.588,5.532
						c0.346,0.2,0.436,0.468,0.21,0.598L332.686,228.645z"/>
					<path fill="#7FB0F0" d="M345.89,236.259c-0.231,0.134-0.699,0.079-1.038-0.117l-9.588-5.533
						c-0.347-0.2-0.438-0.468-0.207-0.602l6.354-3.67c0.226-0.13,0.69-0.078,1.037,0.122l9.588,5.533
						c0.339,0.196,0.434,0.466,0.208,0.597L345.89,236.259z"/>
					<path fill="#7FB0F0" d="M359.094,243.878c-0.232,0.134-0.699,0.079-1.048-0.122l-9.586-5.532
						c-0.34-0.196-0.438-0.467-0.206-0.602l6.354-3.67c0.226-0.13,0.697-0.074,1.036,0.122l9.586,5.532
						c0.349,0.201,0.442,0.472,0.217,0.602L359.094,243.878z"/>
					<path fill="#7FB0F0" d="M372.292,251.495c-0.231,0.134-0.699,0.079-1.042-0.119l-9.587-5.533
						c-0.346-0.199-0.438-0.468-0.207-0.602l6.353-3.67c0.226-0.13,0.692-0.077,1.038,0.122l9.588,5.533
						c0.342,0.198,0.436,0.468,0.21,0.598L372.292,251.495z"/>
					<path fill="#7FB0F0" d="M266.75,190.601c-0.231,0.134-0.699,0.079-1.045-0.121l-16.255-9.38c-0.346-0.2-0.44-0.47-0.209-0.604
						l6.353-3.67c0.226-0.13,0.694-0.076,1.04,0.124l16.255,9.38c0.347,0.2,0.44,0.47,0.215,0.601L266.75,190.601z"/>
					<path fill="#7FB0F0" d="M394.239,254.059c-0.229,0.133-0.697,0.079-1.042-0.121l-16.256-9.381
						c-0.34-0.196-0.438-0.468-0.209-0.601l6.351-3.668c0.23-0.133,0.702-0.076,1.041,0.12l16.256,9.381
						c0.345,0.199,0.44,0.469,0.21,0.602L394.239,254.059z"/>
					<path fill="#7FB0F0" d="M261.124,197.457c-0.229,0.133-0.691,0.079-1.04-0.123l-19.378-11.183
						c-0.347-0.2-0.444-0.468-0.214-0.601l6.354-3.67c0.225-0.13,0.693-0.076,1.039,0.124l19.378,11.183
						c0.35,0.201,0.439,0.47,0.215,0.6L261.124,197.457z"/>
					<path fill="#7FB0F0" d="M245.919,198.784c-0.228,0.131-0.697,0.077-1.042-0.123l-12.921-7.456
						c-0.346-0.2-0.439-0.471-0.213-0.602l6.353-3.67c0.229-0.131,0.698-0.079,1.044,0.122l12.921,7.456
						c0.346,0.199,0.438,0.471,0.211,0.603L245.919,198.784z"/>
					<path fill="#7FB0F0" d="M282.026,189.315c-0.229,0.132-0.695,0.079-1.045-0.123l-9.58-5.529
						c-0.346-0.199-0.44-0.47-0.212-0.602l6.352-3.669c0.229-0.133,0.697-0.078,1.043,0.122l9.58,5.529
						c0.35,0.202,0.443,0.47,0.213,0.603L282.026,189.315z"/>
					<path fill="#7FB0F0" d="M295.167,196.893c-0.229,0.133-0.698,0.078-1.044-0.122l-9.587-5.533
						c-0.343-0.198-0.439-0.469-0.21-0.602l6.351-3.668c0.23-0.133,0.699-0.077,1.043,0.121l9.587,5.532
						c0.345,0.2,0.441,0.47,0.212,0.603L295.167,196.893z"/>
					<path fill="#7FB0F0" d="M308.363,204.508c-0.229,0.132-0.692,0.081-1.039-0.119l-9.587-5.532
						c-0.343-0.198-0.438-0.468-0.208-0.601l6.351-3.669c0.23-0.133,0.697-0.078,1.04,0.12l9.587,5.533
						c0.347,0.2,0.438,0.467,0.207,0.6L308.363,204.508z"/>
					<path fill="#7FB0F0" d="M321.568,212.128c-0.229,0.133-0.699,0.077-1.044-0.122l-9.581-5.529
						c-0.347-0.201-0.44-0.47-0.211-0.603l6.351-3.668c0.229-0.133,0.696-0.079,1.044,0.122l9.581,5.529
						c0.344,0.199,0.441,0.469,0.211,0.603L321.568,212.128z"/>
					<path fill="#7FB0F0" d="M334.763,219.743c-0.229,0.132-0.69,0.082-1.038-0.119l-9.585-5.531
						c-0.348-0.201-0.441-0.47-0.212-0.603l6.351-3.668c0.23-0.133,0.697-0.079,1.044,0.122l9.585,5.531
						c0.348,0.201,0.437,0.467,0.206,0.6L334.763,219.743z"/>
					<path fill="#7FB0F0" d="M347.97,227.358c-0.229,0.133-0.698,0.078-1.039-0.119l-9.591-5.535
						c-0.342-0.197-0.435-0.467-0.206-0.599l6.352-3.669c0.229-0.133,0.695-0.079,1.038,0.119l9.59,5.535
						c0.341,0.197,0.438,0.467,0.208,0.6L347.97,227.358z"/>
					<path fill="#7FB0F0" d="M361.171,234.977c-0.229,0.132-0.697,0.078-1.043-0.121l-9.586-5.532
						c-0.347-0.2-0.442-0.471-0.213-0.604l6.351-3.669c0.23-0.133,0.698-0.077,1.045,0.123l9.587,5.532
						c0.345,0.199,0.44,0.469,0.21,0.602L361.171,234.977z"/>
					<path fill="#7FB0F0" d="M374.368,242.592c-0.229,0.132-0.694,0.08-1.037-0.118l-9.593-5.536
						c-0.342-0.197-0.435-0.466-0.205-0.599l6.351-3.669c0.23-0.133,0.696-0.079,1.037,0.118l9.593,5.537
						c0.343,0.197,0.436,0.465,0.205,0.598L374.368,242.592z"/>
					<path fill="#7FB0F0" d="M382.044,249.31c-0.159-0.092-0.354-0.161-0.562-0.184c-0.202-0.024-0.364,0.002-0.472,0.063
						l-6.353,3.67c-0.107,0.062-0.156,0.157-0.115,0.275c0.044,0.117,0.159,0.233,0.317,0.325l2.503,1.444l-8.331,4.813
						c-0.107,0.062-0.149,0.16-0.108,0.276c0.042,0.117,0.16,0.23,0.321,0.323l6.458,3.728c0.164,0.094,0.36,0.162,0.565,0.187
						c0.202,0.026,0.37,0,0.478-0.062l15.103-8.724c0.106-0.062,0.149-0.157,0.106-0.275c-0.041-0.12-0.16-0.232-0.323-0.327
						L382.044,249.31z"/>
					<path fill="#7FB0F0" d="M244.202,195.688c-0.015,0.008-0.06-0.004-0.1-0.028l-7.329-4.229c-0.04-0.023-0.062-0.049-0.048-0.057
						l0.464-0.268c0.014-0.008,0.06,0.005,0.1,0.028l7.328,4.229c0.041,0.023,0.062,0.049,0.049,0.058L244.202,195.688z"/>
				</g>
			</g>
		</g>
	</g>
	<g>
		<path opacity="0.4" fill="#A8C4E5" d="M206.38,411.437l-39.34,21.963c-1.491,0.833-2.088,2.533-1.327,3.78
			c0.762,1.246,2.605,1.585,4.097,0.752l41.93-23.4L206.38,411.437z"/>
		<path opacity="0.4" fill="#A8C4E5" d="M180.986,396.775l-5.742-3.315l-38.854,22.127c-1.492,0.833-2.089,2.533-1.327,3.78
			c0.762,1.246,2.604,1.585,4.096,0.752L180.986,396.775z"/>
		<path fill="#1737A2" d="M206.295,289.941l-0.254-0.145c-0.896-0.51-1.934,0.217-2.308,1.615l-4.703,17.586l-28.024-15.979
			l4.703-17.585c0.374-1.399-0.052-2.961-0.947-3.472l-0.254-0.145c-0.896-0.51-1.934,0.217-2.308,1.615l-5.086,19.02l0,0
			l-0.495,1.852l0,0l-6.09,22.772h-0.001l-0.364,1.363l-6.221,23.261l0,0l-0.024,0.092l-6.801,25.432l-0.255,0.952l0,0l-6.09,22.772
			l0,0l-0.495,1.852l0,0l-6.373,23.83c-0.374,1.398,0.053,2.961,0.947,3.471l0.254,0.146c0.896,0.51,1.934-0.217,2.308-1.616
			l5.989-22.396l28.024,15.979l-5.989,22.396c-0.374,1.398,0.052,2.961,0.947,3.471l0.254,0.145
			c0.896,0.511,1.934-0.216,2.308-1.615l38.295-143.196C207.617,292.014,207.19,290.452,206.295,289.941z M197.769,313.717
			l-5.323,19.905l-28.024-15.979l5.323-19.904L197.769,313.717z M185.861,358.246l-28.024-15.979l5.323-19.904l28.024,15.978
			L185.861,358.246z M179.276,382.87l-28.024-15.979l5.323-19.904l28.024,15.978L179.276,382.87z M144.667,391.516l5.323-19.904
			l28.023,15.978l-5.323,19.905L144.667,391.516z"/>
	</g>
	<polygon fill="#EDF7FF" points="496.248,461.779 358.81,382.43 495.389,303.576 634.177,382.762 	"/>
	<linearGradient id="SVGID_4_" gradientUnits="userSpaceOnUse" x1="496.2476" y1="460.873" x2="634.1772" y2="460.873">
		<stop  offset="0.0591" style="stop-color:#88B6EA"/>
		<stop  offset="0.9409" style="stop-color:#BAD5EB"/>
	</linearGradient>
	<polygon fill="url(#SVGID_4_)" points="496.248,461.779 496.375,538.985 634.177,460.041 634.177,382.762 	"/>
	<polygon fill="#CCE9FF" points="359.011,382.425 359.011,459.67 496.449,539.02 496.449,461.774 	"/>
	<g>
		<path fill="#18BDF7" d="M234.887,158.079l-67.99,39.254c-3.777,2.181-8.498-0.545-8.498-4.906V74.388
			c0-2.941,1.568-5.659,4.115-7.129l69.895-40.354c2.562-1.479,5.765,0.37,5.765,3.328v122.155
			C238.173,154.735,236.92,156.905,234.887,158.079z"/>
		<g>
			<path fill="#1737A2" d="M175.345,140.002c-0.304,14.679,9.814,20.877,22.598,13.844c12.784-7.033,23.393-24.634,23.695-39.313
				c0.303-14.679-9.814-20.877-22.598-13.844C186.256,107.722,175.648,125.323,175.345,140.002z M198.177,142.52
				c-7.336,4.036-13.143,0.479-12.969-7.944c0.174-8.424,6.262-18.524,13.598-22.56c7.336-4.036,13.142-0.479,12.968,7.944
				C211.6,128.384,205.512,138.484,198.177,142.52z"/>
			<path fill="#FF9359" d="M176.304,132.562c2.906-12.757,12.061-26,22.736-31.873c7.823-4.304,14.643-3.646,18.691,0.873
				l-2.813,3.667c0.013,0.014,0.025,0.027,0.038,0.041l-5.498,7.165c-2.332-2.519-6.21-2.863-10.652-0.419
				c-6.072,3.34-11.285,10.836-13.001,18.097L176.304,132.562z"/>
			<path fill="#FFFFFF" d="M208.143,132.057c2.182-3.874,3.55-8.167,3.631-12.097c0.074-3.557-0.922-6.242-2.646-7.858l1.866-2.482
				c-0.025-0.024-0.049-0.05-0.074-0.074l5.97-8.834c0.159,0.144,0.312,0.296,0.464,0.45l0.001-0.001
				c0.018,0.017,0.033,0.036,0.051,0.052c0.023,0.024,0.047,0.047,0.07,0.071c0.065,0.067,0.128,0.137,0.188,0.21
				c2.608,2.861,4.094,7.296,3.975,13.041c-0.14,6.754-2.465,14.126-6.176,20.803L208.143,132.057z"/>
		</g>
		<path fill="#FFFFFF" d="M211.298,77.564l8.252-4.765c1.344-0.775,2.434-2.857,2.434-4.649l0,0c0-1.792-1.09-2.615-2.434-1.839
			l-8.252,4.764c-1.344,0.776-2.433,2.857-2.433,4.649l0,0C208.866,77.517,209.955,78.34,211.298,77.564z"/>
		<path fill="#1737A2" d="M211.298,63.032l8.252-4.765c1.344-0.776,2.434-2.857,2.434-4.649l0,0c0-1.792-1.09-2.615-2.434-1.839
			l-8.252,4.764c-1.344,0.776-2.433,2.857-2.433,4.649l0,0C208.866,62.984,209.955,63.808,211.298,63.032z"/>
		<path fill="#1737A2" d="M206.87,65.589l8.253-4.765c1.344-0.776,2.433-2.857,2.433-4.649l0,0c0-1.792-1.089-2.616-2.433-1.84
			l-8.253,4.765c-1.344,0.776-2.433,2.857-2.433,4.649l0,0C204.437,65.542,205.526,66.365,206.87,65.589z"/>
		<path fill="#FFFFFF" d="M194.218,87.505l8.252-4.764c1.344-0.776,2.434-2.857,2.434-4.649l0,0c0-1.792-1.09-2.615-2.434-1.839
			l-8.252,4.764c-1.344,0.776-2.434,2.857-2.434,4.649l0,0C191.785,87.458,192.875,88.281,194.218,87.505z"/>
		<path fill="#FFFFFF" d="M177.137,97.394l8.253-4.765c1.344-0.776,2.433-2.857,2.433-4.649l0,0c0-1.792-1.089-2.615-2.433-1.839
			l-8.253,4.765c-1.344,0.776-2.433,2.857-2.433,4.649l0,0C174.705,97.346,175.793,98.169,177.137,97.394z"/>
	</g>
	<g>
		<polygon fill="#FFFFFF" stroke="#B3DDFF" stroke-width="0.7569" stroke-miterlimit="10" points="373.701,114.592 371.708,200.224 
			413.801,224.737 415.794,139.106 		"/>
		<polygon fill="#18BDF7" points="406.565,155.826 387.629,144.807 387.708,141.419 406.644,152.438 		"/>
		<polygon fill="#18BDF7" points="406.208,171.189 387.272,160.17 387.351,156.782 406.287,167.801 		"/>
		<polygon fill="#18BDF7" points="405.85,186.552 386.915,175.533 386.994,172.145 405.928,183.164 		"/>
		<path fill="#1737A2" d="M382.667,143.806l-3.818-2.222c-0.568-0.331-1.015-1.219-0.997-1.984l0.094-4.03
			c0.018-0.765,0.493-1.116,1.062-0.785l3.818,2.222c0.568,0.331,1.016,1.219,0.998,1.983l-0.094,4.03
			C383.712,143.786,383.237,144.137,382.667,143.806z"/>
		<path fill="#1737A2" d="M382.285,160.258l-3.818-2.222c-0.568-0.331-1.015-1.219-0.997-1.983l0.093-4.03
			c0.019-0.765,0.494-1.116,1.062-0.785l3.818,2.222c0.568,0.331,1.016,1.219,0.998,1.983l-0.094,4.03
			C383.329,160.238,382.853,160.589,382.285,160.258z"/>
		<path fill="#1737A2" d="M381.902,176.71l-3.818-2.222c-0.568-0.331-1.016-1.219-0.997-1.983l0.093-4.03
			c0.019-0.764,0.494-1.116,1.062-0.785l3.818,2.222c0.568,0.331,1.016,1.219,0.997,1.983l-0.093,4.03
			C382.946,176.689,382.47,177.041,381.902,176.71z"/>
		<path fill="#FF9359" d="M392.431,208.243l-22.151-12.89c-3.021-1.758-5.414-6.517-5.32-10.577l0.028-1.189
			c0.095-4.06,2.644-5.943,5.664-4.185l22.15,12.89c3.021,1.758,5.415,6.517,5.32,10.577l-0.028,1.189
			C398,208.118,395.452,210.001,392.431,208.243z"/>
		<path fill="#FFFFFF" d="M390.548,199.726l-19.223-11.187c-0.393-0.228-0.703-0.846-0.69-1.373l0,0
			c0.012-0.527,0.343-0.771,0.735-0.543l19.223,11.186c0.393,0.229,0.703,0.846,0.69,1.374l0,0
			C391.272,199.709,390.941,199.954,390.548,199.726z"/>
	</g>
	<g>
		<polygon fill="#FFFFFF" points="363.735,113.947 363.764,112.635 279.437,63.63 277.702,141.181 362.029,190.186 		"/>
		<g>
			<polygon fill="none" stroke="#B3DDFF" stroke-width="0.7571" stroke-miterlimit="10" points="354.625,172.754 283.457,131.396 
				284.745,73.831 355.913,115.188 			"/>
			
				<line fill="none" stroke="#B3DDFF" stroke-width="0.7571" stroke-miterlimit="10" x1="307.865" y1="87.266" x2="306.577" y2="144.833"/>
			
				<line fill="none" stroke="#B3DDFF" stroke-width="0.7571" stroke-miterlimit="10" x1="331.889" y1="101.227" x2="330.601" y2="158.793"/>
			
				<line fill="none" stroke="#B3DDFF" stroke-width="0.5392" stroke-miterlimit="10" x1="284.524" y1="83.674" x2="355.693" y2="125.031"/>
			
				<line fill="none" stroke="#B3DDFF" stroke-width="0.5392" stroke-miterlimit="10" x1="284.31" y1="93.269" x2="355.478" y2="134.626"/>
			
				<line fill="none" stroke="#B3DDFF" stroke-width="0.5392" stroke-miterlimit="10" x1="284.095" y1="102.863" x2="355.263" y2="144.22"/>
			
				<line fill="none" stroke="#B3DDFF" stroke-width="0.5392" stroke-miterlimit="10" x1="355.048" y1="153.814" x2="283.88" y2="112.457"/>
			
				<line fill="none" stroke="#B3DDFF" stroke-width="0.5392" stroke-miterlimit="10" x1="354.833" y1="163.409" x2="283.666" y2="122.051"/>
		</g>
		<path fill="#1737A2" d="M303.333,148.656l-2.896-1.683c-0.385-0.224-0.688-0.823-0.676-1.339l0,0
			c0.012-0.516,0.333-0.753,0.718-0.53l2.896,1.683c0.385,0.224,0.687,0.823,0.675,1.339l0,0
			C304.04,148.642,303.718,148.879,303.333,148.656z"/>
		<path fill="#1737A2" d="M327.247,162.761l-2.896-1.683c-0.385-0.224-0.688-0.823-0.676-1.339l0,0
			c0.012-0.516,0.333-0.753,0.717-0.53l2.896,1.683c0.384,0.223,0.687,0.823,0.675,1.339l0,0
			C327.952,162.748,327.631,162.985,327.247,162.761z"/>
		<path fill="#1737A2" d="M351.431,177.384l-2.896-1.683c-0.384-0.224-0.687-0.823-0.675-1.339l0,0
			c0.012-0.516,0.332-0.753,0.717-0.53l2.896,1.683c0.385,0.224,0.688,0.823,0.676,1.339l0,0
			C352.137,177.37,351.816,177.607,351.431,177.384z"/>
		<path fill="#18BDF7" d="M355.226,145.886c-9.4-4.42-11.549,10.062-16.043,7.929c-4.496-2.133-3.602-17.834-8.497-20.679
			s-4.193,13.435-8.872,11.084c-4.68-2.351-1.631-21.062-9.557-24.992c-9.834-4.875-3.035,20.043-11.974,16.446
			c-7.22-2.905-0.838-10.644-7.932-15.085c-3.646-2.283-8.771,5.266-8.771,5.266l-0.124,5.541l71.168,41.357L355.226,145.886z"/>
	</g>
	<g>
		<g>
			<path fill="none" stroke="#B3DDFF" stroke-width="0.9448" stroke-miterlimit="10" d="M39.378,161.519"/>
			<polygon fill="none" stroke="#B3DDFF" stroke-width="0.9448" stroke-miterlimit="10" points="115.051,147.44 140.235,133.234 
				140.11,104.695 114.927,118.901 			"/>
			<polygon fill="none" stroke="#B3DDFF" stroke-width="0.9448" stroke-miterlimit="10" points="89.868,161.646 115.051,147.44 
				114.927,118.901 89.744,133.107 			"/>
			<polygon fill="none" stroke="#B3DDFF" stroke-width="0.9448" stroke-miterlimit="10" points="64.685,175.852 89.868,161.646 
				89.744,133.107 64.561,147.312 			"/>
			<polygon fill="none" stroke="#B3DDFF" stroke-width="0.9448" stroke-miterlimit="10" points="39.502,190.058 64.685,175.852 
				64.561,147.312 39.378,161.519 			"/>
			<polygon fill="none" stroke="#B3DDFF" stroke-width="0.9448" stroke-miterlimit="10" points="115.175,175.979 140.359,161.774 
				140.235,133.234 115.051,147.44 			"/>
			<polygon fill="none" stroke="#B3DDFF" stroke-width="0.9448" stroke-miterlimit="10" points="89.993,190.186 115.175,175.979 
				115.051,147.44 89.868,161.646 			"/>
			<polygon fill="none" stroke="#B3DDFF" stroke-width="0.9448" stroke-miterlimit="10" points="39.626,218.597 64.81,204.391 
				64.685,175.852 39.502,190.058 			"/>
			
				<line fill="none" stroke="#B3DDFF" stroke-width="0.9448" stroke-miterlimit="10" x1="140.359" y1="161.774" x2="140.483" y2="190.313"/>
			<polygon fill="none" stroke="#B3DDFF" stroke-width="0.9448" stroke-miterlimit="10" points="90.117,218.725 115.3,204.519 
				115.175,175.979 89.993,190.186 			"/>
			<polygon fill="none" stroke="#B3DDFF" stroke-width="0.9448" stroke-miterlimit="10" points="64.934,232.93 90.117,218.725 
				89.993,190.186 64.81,204.391 			"/>
			<polygon fill="none" stroke="#B3DDFF" stroke-width="0.9448" stroke-miterlimit="10" points="39.75,247.136 64.934,232.93 
				64.81,204.391 39.626,218.597 			"/>
			
				<line fill="none" stroke="#B3DDFF" stroke-width="0.9448" stroke-miterlimit="10" x1="140.483" y1="190.313" x2="140.607" y2="218.852"/>
			<polygon fill="none" stroke="#B3DDFF" stroke-width="0.9448" stroke-miterlimit="10" points="115.424,233.058 140.607,218.852 
				140.483,190.313 115.3,204.519 			"/>
			<polygon fill="none" stroke="#B3DDFF" stroke-width="0.9448" stroke-miterlimit="10" points="90.241,247.264 115.424,233.058 
				115.3,204.519 90.117,218.725 			"/>
			<polygon fill="none" stroke="#B3DDFF" stroke-width="0.9448" stroke-miterlimit="10" points="65.058,261.47 90.241,247.264 
				90.117,218.725 64.934,232.93 			"/>
			<polygon fill="none" stroke="#B3DDFF" stroke-width="0.9448" stroke-miterlimit="10" points="39.875,275.675 65.058,261.47 
				64.934,232.93 39.75,247.136 			"/>
		</g>
	</g>
	
		<polyline fill="none" stroke="#1737A2" stroke-width="2" stroke-linecap="round" stroke-linejoin="round" stroke-miterlimit="10" points="
		46.351,267.506 61.429,211.791 85.941,208.642 93.875,167.575 115.174,167.932 129.399,134.304 	"/>
	
		<polyline fill="none" stroke="#1737A2" stroke-width="2" stroke-linecap="round" stroke-linejoin="round" stroke-miterlimit="10" points="
		123.966,136.011 129.994,133.42 131.227,138.771 	"/>
	<path opacity="0.4" fill="#A8C4E5" d="M531.058,399.056l-48.081-27.22l-5.987-61.362c1.339-0.781,3.404-0.871,4.589-0.2
		l102.374,57.955c1.185,0.67,1.058,1.858-0.281,2.639l-48.023,27.988C534.308,399.637,532.244,399.727,531.058,399.056z"/>
	<g>
		<g>
			<path fill="#B6D4ED" d="M534.123,398.407l-56.009-34.398c-3.378-1.95-6.115-7.181-6.115-11.684V234.474
				c0-4.502,2.737-6.572,6.114-4.623l56.376,32.549c3.377,1.949,6.115,7.181,6.115,11.683v117.295c0,2.962-0.923,3.506-2.787,4.582
				L534.123,398.407z"/>
			<path fill="#DBEFFF" d="M498.59,285.124c0,0-26.617,71.588-26.617,67.085l-2.585-120.5l4.923-2.414
				c1.04-0.49,2.352-0.383,3.776,0.44l56.376,32.549c1.649,0.952,3.146,2.687,4.245,4.736L498.59,285.124z"/>
			<path fill="#1737A2" d="M529.312,398.85l-56.238-32.549c-3.377-1.949-5.976-7.181-5.976-11.683V236.767
				c0-4.503,2.666-6.572,6.043-4.623l56.206,32.548c3.377,1.95,5.945,7.181,5.945,11.684v117.851
				C535.292,398.729,532.689,400.799,529.312,398.85z"/>
			<path fill="#2C4482" d="M537.706,285.021v6.731c0,0.468,0.28,0.686,0.632,0.482l-0.084-0.058
				c0.352-0.202,0.455-0.752,0.455-1.221v-6.731c0-0.468-0.107-0.686-0.459-0.482l-0.002,0.058
				C537.896,284.002,537.706,284.552,537.706,285.021z"/>
			<path fill="#2C4482" d="M537.706,296.804v6.731c0,0.469,0.28,0.686,0.632,0.483l-0.084-0.058
				c0.352-0.203,0.455-0.752,0.455-1.221v-6.731c0-0.469-0.107-0.686-0.459-0.483l-0.002,0.058
				C537.896,295.786,537.706,296.336,537.706,296.804z"/>
			<path fill="#18BDF7" d="M527.751,378.709l-54.831-31.656c-0.57-0.33-0.922-0.938-0.922-1.597v-99.524
				c0-1.419,1.536-2.306,2.765-1.596l54.832,31.658c0.57,0.329,0.922,0.938,0.922,1.596v99.524
				C530.517,378.532,528.981,379.419,527.751,378.709z"/>
			<path fill="#FFFFFF" d="M511.064,261.079l-17.389-10.04c-0.61-0.352-1.109-1.306-1.109-2.12l0,0c0-0.813,0.499-1.19,1.109-0.838
				l17.389,10.04c0.61,0.353,1.109,1.306,1.109,2.119l0,0C512.173,261.054,511.674,261.432,511.064,261.079z"/>
		</g>
		<g>
			
				<line fill="none" stroke="#FFFFFF" stroke-width="0.584" stroke-linecap="round" stroke-linejoin="round" stroke-miterlimit="10" x1="476.298" y1="342.515" x2="522.478" y2="369.712"/>
			<polygon fill="#1737A2" points="489.659,345.19 476.298,337.477 476.298,313.459 489.66,321.173 			"/>
			<polygon fill="#FFFFFF" points="506.034,354.644 492.673,346.931 492.673,331.227 506.034,338.939 			"/>
			<polygon fill="#FF9359" points="522.91,364.388 509.549,356.674 509.549,325.187 522.91,332.9 			"/>
			<g>
				
					<line fill="none" stroke="#FFFFFF" stroke-width="0.6639" stroke-miterlimit="10" x1="478.476" y1="256.167" x2="521.308" y2="280.896"/>
				
					<line fill="none" stroke="#FFFFFF" stroke-width="0.6639" stroke-miterlimit="10" x1="478.743" y1="279.587" x2="521.576" y2="304.316"/>
				
					<line fill="none" stroke="#FFFFFF" stroke-width="0.6639" stroke-miterlimit="10" x1="479.01" y1="303.006" x2="521.842" y2="327.735"/>
				<path fill="none" stroke="#FFFFFF" stroke-width="0.6639" stroke-miterlimit="10" d="M522.11,351.155"/>
				<polygon fill="none" stroke="#FFFFFF" stroke-width="0.6639" stroke-miterlimit="10" points="500.159,291.951 478.743,279.587 
					478.476,256.167 499.892,268.532 				"/>
				<polygon fill="none" stroke="#FFFFFF" stroke-width="0.6639" stroke-miterlimit="10" points="521.576,304.316 500.159,291.951 
					499.892,268.532 521.308,280.896 				"/>
				<polygon fill="none" stroke="#FFFFFF" stroke-width="0.6639" stroke-miterlimit="10" points="500.426,315.371 479.01,303.006 
					478.743,279.587 500.159,291.951 				"/>
				<polygon fill="none" stroke="#FFFFFF" stroke-width="0.6639" stroke-miterlimit="10" points="521.842,327.735 500.426,315.371 
					500.159,291.951 521.576,304.316 				"/>
				
					<line fill="none" stroke="#FFFFFF" stroke-width="0.6639" stroke-miterlimit="10" x1="500.426" y1="315.371" x2="479.01" y2="303.006"/>
				
					<line fill="none" stroke="#FFFFFF" stroke-width="0.6639" stroke-miterlimit="10" x1="500.426" y1="315.371" x2="521.842" y2="327.735"/>
			</g>
			<polyline fill="none" stroke="#1737A2" stroke-linecap="round" stroke-linejoin="round" stroke-miterlimit="10" points="
				479.992,301.726 491.057,295.888 503.57,294.723 518.37,286.424 			"/>
			<polyline fill="none" stroke="#1737A2" stroke-linecap="round" stroke-linejoin="round" stroke-miterlimit="10" points="
				515.908,285.153 519,286.108 517.454,289.225 			"/>
		</g>
	</g>
	<path fill="#FFFFFF" d="M353.167,93.5c-0.001,1.06-0.751,1.486-1.676,0.953s-1.674-1.826-1.673-2.886s0.751-1.486,1.676-0.953
		C352.418,91.148,353.167,92.44,353.167,93.5z"/>
	<g>
		<path opacity="0.4" fill="#A8C4E5" d="M288.146,495.609c23.764-13.72,23.644-36.034-0.27-49.84l-11.227,6.48
			c-23.396-7.861-53.795-6.061-73.726,5.447c-23.764,13.72-23.643,36.034,0.271,49.84c23.912,13.807,62.562,13.877,86.326,0.156
			l-43.299-24.998L256,477.05L288.146,495.609z"/>
		<path fill="#15A2D4" d="M277.663,501.674c-23.765,13.72-62.414,13.65-86.327-0.156c-23.913-13.806-24.033-36.12-0.27-49.841
			c23.764-13.72,62.413-13.649,86.326,0.156l-43.028,24.843L277.663,501.674z"/>
		<path fill="#BAD0E6" d="M234.288,476.719l0.077-0.045l43.298,24.998c-10.194,5.886-22.881,9.532-36.917,10.076l-1.264,0.064
			l-0.407-8.597C237.402,494.612,234.98,481.868,234.288,476.719z"/>
		<polygon fill="#BAD0E6" points="277.392,492.698 277.663,501.674 260.857,494.252 		"/>
		<path fill="#E87538" d="M277.527,482.695c0,0,23.938-12.443,17.744-33.331s-17.744,25.995-17.744,25.995V482.695z"/>
		<path fill="#0076BF" d="M191.335,501.518c-23.913-13.806-24.034-36.12-0.27-49.841l43.298,24.999L191.335,501.518z"/>
		<path fill="#18BDF7" d="M277.392,451.833c-23.913-13.806-62.562-13.876-86.326-0.156l43.298,24.999L277.392,451.833z"/>
		<path fill="#0076BF" d="M234.287,476.72l0.077-0.044l-43.298-24.999c-5.9,3.407-14.746,10.654-17.744,15.951v8.472
			C193.039,477.024,220.253,476.091,234.287,476.72z"/>
		<path fill="#18BDF7" d="M277.663,493.059c-23.765,13.72-62.414,13.65-86.327-0.156c-23.913-13.806-24.033-36.12-0.27-49.84
			c23.764-13.721,62.413-13.65,86.326,0.155l-43.028,24.843L277.663,493.059z"/>
		<path fill="#008CE3" d="M191.335,492.902c-23.913-13.806-24.034-36.12-0.27-49.84l43.298,24.998L191.335,492.902z"/>
		<path fill="#B8ECFF" d="M277.392,443.218c-23.913-13.806-62.562-13.876-86.326-0.155l43.298,24.998L277.392,443.218z"/>
		<path fill="#FF9359" d="M277.257,425.519c23.912,13.807,24.033,36.121,0.27,49.841l-43.298-24.998L277.257,425.519z"/>
		<path fill="#1737A2" d="M234.287,468.104l0.077-0.044l-43.298-24.998c-10.732,6.195-16.591,14.145-17.589,22.271
			C193.194,466.258,220.253,467.477,234.287,468.104z"/>
		<path fill="#FFFFFF" d="M234.287,468.104l0.077-0.044l43.298,24.998c-10.731,6.196-24.498,9.579-38.573,10.155
			C237.486,491.83,235.375,476.207,234.287,468.104z"/>
		<polygon fill="#E87538" points="234.229,450.361 234.229,456.586 277.527,482.695 277.527,475.359 		"/>
		<path fill="#15A2D4" d="M191.335,501.518v-8.615c3.313,1.934,6.862,3.564,10.626,4.917L191.335,501.518z"/>
	</g>
	<g>
		<polygon fill="#FFFFFF" stroke="#B3DDFF" stroke-width="0.6795" stroke-miterlimit="10" points="474.628,261.146 436.149,238.93 
			436.149,277.111 474.628,299.328 		"/>
		<g>
			<polygon fill="#FF9359" points="449.664,280.307 441.946,275.829 442.105,263.721 449.823,268.198 			"/>
			<polygon fill="#18BDF7" points="459.122,285.794 451.404,281.316 451.508,273.399 459.225,277.877 			"/>
			<polygon fill="#FF5C97" points="468.87,291.449 461.153,286.972 461.361,271.098 469.079,275.575 			"/>
			<path fill="#18BDF7" d="M448.875,261.773l-6.099-3.51c-0.545-0.314-1.028-1.165-1.073-1.892l0,0
				c-0.045-0.727,0.365-1.064,0.91-0.75l6.099,3.509c0.546,0.314,1.028,1.166,1.073,1.892l0,0
				C449.83,261.75,449.419,262.087,448.875,261.773z"/>
			<path fill="#18BDF7" d="M459.097,267.857l-6.098-3.51c-0.546-0.314-1.029-1.165-1.074-1.892l0,0
				c-0.045-0.727,0.365-1.064,0.91-0.75l6.099,3.509c0.546,0.314,1.028,1.166,1.073,1.893l0,0
				C460.052,267.834,459.643,268.171,459.097,267.857z"/>
			<path fill="#1737A2" d="M465.065,259.676l-21.828-12.664c-0.715-0.414-1.397-0.176-1.519,0.529
				c-0.121,0.706,0.363,1.621,1.078,2.036l21.828,12.664c0.714,0.414,1.397,0.177,1.519-0.528S465.779,260.091,465.065,259.676z"/>
		</g>
	</g>
	<g>
		<path fill="#DBEFFF" d="M411.563,589.328c-7.351,4.891-19.398,5.643-26.908,1.681c-7.51-3.963-7.639-11.141-0.287-16.031
			s19.399-5.644,26.909-1.681S418.915,584.438,411.563,589.328z"/>
		<g>
			<path fill="#1737A2" d="M415.212,444.831c-0.582-1.292,0.067-2.8,1.403-3.272c1.642-0.582,3.687-0.632,4.58,2.088
				c1.017,3.097,3.396,8.998,5.007,12.918c0.554,1.349-1.158,2.491-2.181,1.452c-0.896-0.91-1.673-2.101-1.953-3.612
				c0,0,0.896,2.521,1.838,4.634c0.485,1.089-0.587,2.232-1.696,1.794c-1.921-0.759-4.044-2.284-4.09-5.326
				C418.065,451.766,416.341,447.34,415.212,444.831z"/>
			
				<ellipse transform="matrix(-0.8377 0.5461 -0.5461 -0.8377 1004.2407 590.385)" fill="#FF9359" cx="414.406" cy="444.394" rx="1.729" ry="2.778"/>
			<path fill="#FFC2B0" d="M397.194,489.697c0.486,0.252,0.98,0.506,1.535,0.584c1.279,0.179,2.659-0.594,3.934-1.342
				c0.116-0.068,0.236-0.141,0.323-0.256c0.18-0.238,0.147-0.563,0.073-0.817c-0.461-1.563-1.203-1.524-2.279-2.424
				c-0.486-0.406-0.917-0.886-1.396-1.3c-0.75-0.647-1.611-1.128-2.468-1.606l0,0c-1.038-0.58-4.828-2.566-5.602,0.274
				c-0.334,1.229-0.224,2.034,0.379,2.834c0.727,0.963,1.125,1.422,2.083,2.086C394.86,488.482,396.027,489.094,397.194,489.697z"/>
			<path fill="#FFC2B0" d="M402.578,486.956c-0.412-1.04-0.517-1.649-1.098-2.544c-0.453-0.696-1.105-1.237-1.878-1.545
				c-1.496-0.597-3.988-1.446-4.816-0.871c-1.067,0.74,0.022,1.983,0.689,2.748c1.325,1.52,3.561,2.589,5.368,3.264
				c0.31,0.116,0.562,0.043,0.736-0.123c0.079,0.162-0.591-0.274-0.524-0.104C401.464,488.815,402.982,487.98,402.578,486.956z"/>
			<polygon fill="#D0E7F4" points="402.203,486.441 403.964,488.291 400.543,492.306 398.525,490.253 			"/>
			<path fill="#1737A2" d="M389.941,576.241l7.992-6.092l4.661-0.795c1.54,6.066,0.842,5.331-0.927,6.885l-6.956,4.331
				c-3.662,1.752-4.824,1.973-6.958,1.038l0,0C386.462,580.238,387.684,578.455,389.941,576.241z"/>
			<path fill="#1737A2" d="M398.889,582.039l7.992-6.092l4.661-0.796c1.541,6.066,0.843,5.332-0.927,6.885l-6.956,4.332
				c-3.662,1.751-4.824,1.972-6.957,1.038l0,0C395.411,586.035,396.632,584.253,398.889,582.039z"/>
			<g>
				<g>
					<path fill="#FFFFFF" d="M413.952,468.28c-3.138-3.109-8.552-4.387-12.838-4.334c-1.24,0.015-1.243,1.944,0,1.929
						c3.765-0.046,8.699,1.02,11.475,3.77C413.47,470.52,414.835,469.156,413.952,468.28L413.952,468.28z"/>
				</g>
			</g>
			<g>
				<path fill="#18BDF7" d="M397.24,468.368c-0.759,10.36-2.079,20.538-4.396,30.67c-1.106,4.839-8.557,2.822-7.449-2.021
					c2.165-9.469,3.42-18.935,4.128-28.617C389.883,463.479,397.603,463.407,397.24,468.368L397.24,468.368z"/>
			</g>
			<g>
				<path fill="#FFC2B0" d="M398.878,507.324c-0.297,21.041,0.806,41.651,4.322,62.389c0.823,4.856-6.61,6.944-7.44,2.051
					c-3.634-21.43-4.905-42.691-4.598-64.439C391.233,502.363,398.949,502.349,398.878,507.324L398.878,507.324z"/>
			</g>
			<g>
				<path fill="#FFC2B0" d="M408.968,513.325c1.204,20.984,3.068,41.982,3.105,63.014c0.008,4.966-7.708,4.973-7.717,0
					c-0.036-21.031-1.9-42.029-3.104-63.014C400.967,508.364,408.684,508.381,408.968,513.325L408.968,513.325z"/>
			</g>
			<path fill="#18BDF7" d="M416.489,515.712c-0.782,10.843-7.718,11.937-14.718,7.896c-6.999-4.041-10.893-13.238-10.893-21.32
				c0,0,3.894-11.988,10.893-7.947C408.771,498.381,417.397,503.122,416.489,515.712z"/>
			<path fill="#18BDF7" d="M392.63,470.914c0,0-4.635,7.283-4.105,11.678c0.337,2.796,2.354,5.939,2.648,6.835
				c2.412,7.326,1.08,9.545,1.34,11.572c0,0,1.607,6.968,18.808,0.382l7.223-21.224L392.63,470.914z"/>
			<path fill="#18BDF7" d="M417.271,484.811c0.633-0.389,0.79-1.426,0.79-1.426c0.438-3.783,2.518-5.502-1.599-11.979
				c-0.662-1.041-9.666-5.708-16.434-6.931c-3.281-0.593-6.524,1.233-7.848,4.292c-0.773,1.789-1.523,5.327-1.523,5.329
				c-0.322,6.948,2.756-2.175,3.244,1.661c-0.017-0.093-0.04-0.187-0.054-0.278c0,0,0.839,6.48,1.475,11.498
				c0.394,3.13,0.673,5.395,0.699,5.712c0.001,0.015,0.003,0.036,0.002,0.04l11.737,9.253l6.177-11.153l0,0L417.271,484.811z"/>
			<path fill="#FFC2B0" d="M400.451,464.377c0,0-5.867,6.059-0.779,10.353c5.089,4.295,13.755-5.304,13.755-5.304
				C408.876,466.578,404.503,464.645,400.451,464.377z"/>
			<path fill="#18BDF7" d="M390.878,502.287l-4.16,28.58c-0.022,0.389,0.098,0.767,0.354,1.105
				c1.597,2.122,9.672,7.676,27.318,4.555c2.034-0.359,2.369-0.456,2.362-1.792l-1.025-22.753l-10.389-0.104L390.878,502.287z"/>
			<path fill="#FFC2B0" d="M403.104,467.872l-2.799-10.804l6.771,2.144l2.276,8.822C409.837,469.473,405.129,473.39,403.104,467.872
				z"/>
			<g>
				<g>
					<path fill="#FFFFFF" d="M398.296,465.211c-0.327,4.125-3.309,8.332,1.881,10.467c5.127,2.108,10.193-2.265,13.616-5.58
						c0.894-0.865-0.472-2.229-1.364-1.364c-2.758,2.672-7.931,7.37-12.069,4.915c-2.762-1.638-0.337-5.881-0.135-8.438
						C400.324,463.973,398.394,463.979,398.296,465.211L398.296,465.211z"/>
				</g>
			</g>
			<path fill="#FFC2B0" d="M400.645,464.741l-2.014-0.615c-3.101-0.947-4.863-4.259-3.916-7.36l3.127-10.239
				c0.947-3.101,4.26-4.863,7.36-3.916l2.014,0.615c3.102,0.947,4.863,4.26,3.916,7.36l-3.127,10.239
				C407.058,463.926,403.746,465.688,400.645,464.741z"/>
			<path fill="#EA8A6C" d="M401.935,464.921c0.899,0.197,3.193-0.027,4.177-0.484c0,0-1.909,2.035-4.01,2.247L401.935,464.921z"/>
			<path fill="#1737A2" d="M404.846,445.979c0,0,1.761,8.564,4.189,11.158l-0.798,1.553c-0.803,1.564-0.851,3.409-0.13,5.013
				l0.297,0.662c0,0,15.942-8.823,5.844-19.904c-6.834-7.498-17.839-3.617-17.834,4.387L404.846,445.979z"/>
			<path fill="#FFC2B0" d="M409.054,461.427c-1.147,0.437-2.082-0.169-2.087-1.354c-0.005-1.185,0.921-2.499,2.068-2.936
				s2.082,0.169,2.087,1.354C411.127,459.676,410.202,460.99,409.054,461.427z"/>
			<g>
				<path fill="#FFC2B0" d="M381.162,505.445l2.594,1.654c1.267,0.808,2.765,0.746,3.329-0.137l0.395-0.618
					c0.565-0.883-0.011-2.268-1.278-3.076l-2.594-1.654c-1.268-0.808-2.766-0.746-3.329,0.136l-0.396,0.619
					C379.318,503.252,379.893,504.637,381.162,505.445z"/>
				<g>
					<path fill="#A8C4E5" d="M402.919,502.703l-0.004-0.631l-0.812,0.314l-0.174-0.401l-20.324-11.734
						c-0.245-0.142-0.677-0.123-0.959,0.04l-8.75,5.052v-0.141l-1.619,0.649v0.671h0.012c0.021,0.065,0.071,0.125,0.154,0.173
						l21.149,12.211c0.245,0.142,0.676,0.124,0.959-0.039l10.135-5.852C402.84,502.927,402.919,502.812,402.919,502.703
						L402.919,502.703z"/>
					<path fill="#E1EAF4" d="M391.581,508.239l-21.15-12.211c-0.244-0.141-0.214-0.39,0.069-0.554l10.135-5.851
						c0.282-0.163,0.714-0.182,0.959-0.04l21.149,12.211c0.245,0.142,0.214,0.391-0.068,0.554L392.54,508.2
						C392.256,508.363,391.825,508.381,391.581,508.239z"/>
					<path fill="#A8C4E5" d="M393.025,500.375l-5.118-2.955c-0.06-0.034-0.052-0.095,0.017-0.135l2.453-1.416
						c0.068-0.039,0.173-0.044,0.231-0.01l5.119,2.956c0.06,0.034,0.052,0.094-0.017,0.134l-2.453,1.416
						C393.189,500.404,393.084,500.409,393.025,500.375z"/>
					<path fill="#FFFFFF" d="M391.042,494.498c-0.087-0.557-0.522-1.217-0.975-1.474l-20.998-11.933
						c-0.187-0.106-0.347-0.126-0.465-0.074l-0.001-0.001l-0.003,0.003c-0.042,0.019-0.078,0.047-0.108,0.083l-0.695,0.73
						l0.632-0.057l1.996,12.904c0.086,0.557,0.522,1.216,0.974,1.473l19.855,11.284l0.641,0.72l0.08,0.178
						c0.401,0.087,1.363-0.596,1.363-0.596L391.042,494.498z"/>
					<path fill="#1737A2" d="M391.652,508.865l-20.998-11.934c-0.452-0.256-0.889-0.916-0.975-1.473l-2.018-13.046
						c-0.086-0.557,0.211-0.8,0.662-0.543l20.998,11.934c0.452,0.257,0.889,0.916,0.975,1.473l2.018,13.046
						C392.4,508.879,392.103,509.122,391.652,508.865z"/>
					<path fill="#FFFFFF" d="M380.493,496.234c0.107,0.693-0.521,0.849-1.403,0.347c-0.883-0.502-1.686-1.47-1.793-2.163
						c-0.106-0.693,0.521-0.848,1.404-0.347C379.583,494.573,380.386,495.541,380.493,496.234z"/>
				</g>
			</g>
			<g>
				<path fill="#FFC2B0" d="M419.083,474.333c2.156,4.978,4.978,10.104,5.553,15.582c0.421,4.004,0.788,10.524-2.129,13.695
					c-2.775,3.017-7.404,2.493-11.014,1.737c-2.231-0.467-4.402-1.175-6.577-1.85c-0.956-0.296-1.912-0.579-2.874-0.855
					c-0.401-0.115-1.434-0.155-0.967-0.273c-3.61,0.917-5.151-4.662-1.538-5.58c2.669-0.679,5.727,0.771,8.229,1.54
					c2.484,0.764,7.216,2.852,9.769,1.703c2.126-0.957,1.601-7.299,1.376-9.487c-0.475-4.635-3.005-9.091-4.824-13.291
					C412.621,473.871,417.604,470.921,419.083,474.333L419.083,474.333z"/>
			</g>
			<g>
				<path fill="#18BDF7" d="M420.292,473.696c4.232,8.366,4.69,17.392,4.692,26.353c0.001,4.04-7.714,4.219-7.714,0.167
					c-0.002-8.456-0.386-16.793-4.381-24.689C411.003,471.798,418.424,470.005,420.292,473.696L420.292,473.696z"/>
			</g>
			<path fill="#FFC2B0" d="M392.536,501.104l-0.135-0.5c-0.396-1.474,0.485-3.002,1.959-3.397l4.14-1.11
				c1.472-0.395,3,0.486,3.396,1.958l0.135,0.501c0.396,1.473-0.485,3.002-1.959,3.397l-4.14,1.11
				C394.458,503.457,392.931,502.576,392.536,501.104z"/>
		</g>
	</g>
	<g>
		<path fill="#DBEFFF" d="M448.417,413.155c-8.232,4.753-21.622,4.729-29.906-0.055c-8.284-4.782-8.326-12.513-0.094-17.266
			s21.622-4.729,29.906,0.054C456.607,400.672,456.649,408.402,448.417,413.155z"/>
		<path fill="#1737A2" d="M425.324,396.307l-9.056,1.847l-1.219,3.143c-0.292,2.253-0.276,3.452,1.219,4.641
			c1.257,0.999,3.819,0.229,5.157-0.396l5.816-3.498c4.312-2.376,3.986-4.137,3.521-5.589l0,0
			C430.073,394.826,428.079,395.203,425.324,396.307z"/>
		<path fill="#1737A2" d="M444.553,407.457l-8.755-2.962l-2.634,2.103c-1.387,1.801-1.977,2.844-1.283,4.623
			c0.583,1.496,3.187,2.119,4.657,2.254l6.786-0.096c4.922,0.117,5.526-1.568,5.855-3.058l0,0
			C449.402,408.567,447.49,407.89,444.553,407.457z"/>
		<g>
			<path fill="#FFC2B0" d="M413.643,295.236c-4.938,7.485-7.12,17.037-9.071,25.68c-0.421,1.862-0.583,2.974-0.088,4.798
				c1.648,6.073,3.518,11.75,4.229,18.081c0.357,3.191,5.409,3.229,5.047,0c-0.66-5.881-1.791-11.677-3.663-17.299
				c-0.353-1.06-0.738-2.104-1.142-3.146c0.37,0.954-0.125,1.657,0.068,0.805c0.12-0.532,0.229-1.067,0.349-1.6
				c1.863-8.326,3.878-17.569,8.63-24.772C419.794,295.064,415.426,292.533,413.643,295.236L413.643,295.236z"/>
		</g>
		<path fill="#88BDEB" d="M412.217,297.22c-3.34,5.819-5.761,15.657-7.958,23.622c-0.833,2.198-0.308,4.188,1.083,4.099l4.647,0.644
			c1.147-0.073,3.327-2.553,3.862-4.392l5.895-20.254c0.959-3.296,0.251-6.13-1.638-6.554l-0.429-0.064
			C417.352,293.107,414.734,293.094,412.217,297.22z"/>
		<path fill="#1737A2" d="M427.832,334.111l-23.319,13.464c-1.143,0.659-2.57-0.165-2.57-1.484v-16.239
			c0-0.612,0.326-1.178,0.856-1.483l23.319-13.464c1.143-0.659,2.57,0.165,2.57,1.484v16.239
			C428.688,333.24,428.361,333.806,427.832,334.111z"/>
		<path fill="#FFFFFF" d="M419.043,329.524c0,1.883-1.33,4.177-2.971,5.124s-2.97,0.188-2.97-1.693c0-1.883,1.329-4.177,2.97-5.124
			S419.043,327.643,419.043,329.524z"/>
		<path fill="#FFC2B0" d="M415.212,344.576l-1.696,0.767c-1.304,0.59-2.854,0.006-3.443-1.298l0,0
			c-0.59-1.304-0.006-2.854,1.299-3.443l1.696-0.768c1.304-0.59,2.854-0.006,3.443,1.298l0,0
			C417.101,342.437,416.517,343.985,415.212,344.576z"/>
		<path opacity="0.46" fill="#FFFFFF" d="M434.872,278.896l0.035,0.953c0,0,0.125,2.876-2.704,1.389
			c-2.83-1.486-2.742-5.073-2.742-5.073S431.612,275.912,434.872,278.896z"/>
		<path fill="#513554" d="M432.184,281.322c3.69,1.918,3.56-1.437,3.56-1.437l0.03,0.014l-0.109-1.141
			c-4.117-3.538-6.735-3.368-6.735-3.368S428.494,279.403,432.184,281.322z M429.605,276.3c0,0,2.101-0.111,5.252,2.632l0.026,0.827
			c0,0,0.097,2.491-2.649,1.063C429.489,279.396,429.605,276.3,429.605,276.3z"/>
		<polygon fill="#513554" points="437.125,280.527 434.93,279.526 434.811,278.284 437.005,279.286 		"/>
		<path fill="#513554" d="M429.108,276.344l-0.389-0.178c-0.212-0.097-0.405-0.392-0.431-0.66l0,0
			c-0.025-0.268,0.125-0.406,0.337-0.31l0.39,0.178c0.212,0.097,0.404,0.392,0.43,0.66l0,0
			C429.47,276.302,429.32,276.44,429.108,276.344z"/>
		<path fill="#513554" d="M443.297,282.818l-0.389-0.178c-0.212-0.097-0.404-0.392-0.43-0.66l0,0
			c-0.026-0.268,0.125-0.406,0.337-0.31l0.389,0.178c0.212,0.097,0.404,0.392,0.431,0.66l0,0
			C443.661,282.776,443.509,282.915,443.297,282.818z"/>
		<g>
			<g>
				<g>
					<g>
						<path fill="#2C4482" d="M442.984,281.803c0,0-2.891-2.683-6.675-2.75l0.109,1.142l0.029,0.013c0,0,0.53,3.537,4.174,4.965
							S442.984,281.803,442.984,281.803z M440.466,284.578c-2.711-1.062-3.104-3.689-3.104-3.689l-0.138-0.877
							c2.891,0.015,5.205,2.139,5.205,2.139S443.177,285.641,440.466,284.578z"/>
					</g>
				</g>
				<g>
					<path fill="#2C4482" d="M437.868,281.521L437.868,281.521c-0.092-0.109-0.12-0.248-0.063-0.31l0.655-0.723
						c0.057-0.062,0.176-0.023,0.268,0.086l0,0c0.091,0.109,0.119,0.248,0.063,0.31l-0.655,0.723
						C438.079,281.668,437.958,281.63,437.868,281.521z"/>
				</g>
			</g>
		</g>
		<path fill="#FCFEFF" d="M430.022,277.786L430.022,277.786c-0.092-0.109-0.12-0.248-0.063-0.31l0.655-0.723
			c0.057-0.062,0.176-0.023,0.268,0.086l0,0c0.091,0.109,0.119,0.248,0.063,0.31l-0.655,0.723
			C430.233,277.934,430.114,277.896,430.022,277.786z"/>
		<g>
			<g>
				<g>
					<path fill="#1737A2" d="M429.192,352.089c3.356,9.847,3.666,20.434,3.351,30.739c-0.235,7.68-1.448,15.428-1.256,23.109
						c0.126,5.038,7.971,5.058,7.844,0c-0.197-7.895,1.06-15.853,1.275-23.747c0.293-10.742-0.154-21.933-3.649-32.188
						C435.136,345.252,427.557,347.292,429.192,352.089L429.192,352.089z"/>
				</g>
			</g>
		</g>
		<g>
			<g>
				<path fill="#1737A2" d="M413.414,343.25c1.759,6.394,2.556,12.989,3.194,19.574c0.378,3.891,0.839,7.604,0.43,11.484
					c-0.824,7.808-2.278,15.766-2.225,23.632c0.035,5.046,7.879,5.057,7.845,0c-0.056-7.984,1.438-16.054,2.26-23.981
					c0.415-3.992-0.144-7.896-0.539-11.887c-0.694-7.017-1.526-14.094-3.401-20.907C419.64,336.305,412.07,338.368,413.414,343.25
					L413.414,343.25z"/>
			</g>
		</g>
		<path fill="#1737A2" d="M419.841,353.62L419.841,353.62c0.724,0.812-2.389-3.137-1.457-2.574c1.94,1.172,12.83,8.57,15.096,8.608
			c2.737,0.045,1.142-2.601,3.18-4.429c1.933-1.735,2.389-4.554,2.577-7.144c0.052-0.717,0.088-1.464-0.198-2.123
			c-0.31-0.711-0.948-1.215-1.566-1.684c-4.838-3.661-14.354-12.724-21.112-9.826C408.55,337.798,416.375,349.734,419.841,353.62z"
			/>
		<path fill="#DBEFFF" d="M414.165,295.664c-1.433,1.847-1.263,2.988-1.194,5.51c0.067,2.465,1.738,4.598,4.112,5.264l24.249,6.801
			c0,0,1.393-9.329-3.39-12.137c-2.577-1.513-6.573-3.934-9.713-5.844C423.618,292.45,417.473,291.398,414.165,295.664z"/>
		<path fill="#FFC2B0" d="M425.221,295.349l2.052-9.141l5.575,3.752l-1.679,8.322C431.005,299.634,424.818,298.454,425.221,295.349z
			"/>
		<path fill="#FFC2B0" d="M428.606,272.881c0,0-5.59-3.893-5.644,5.568c-0.038,6.581,3.96,12.284,9.358,14.853
			c3.362,1.6,7.473-0.449,7.657-3.727c0.801-4.779,0.812-9.248-0.756-13.095c0.223-3.951-2.496-2.546-7.194-2.801L428.606,272.881z"
			/>
		<path fill="#1737A2" d="M425.41,291.242c0,0-6.465-2.4-5.851-11.496c0.665-9.843,9.717-8.995,14.748-9.478
			c2.229-0.213,3.777-0.534,6.059,1.5c2.075,1.851,0.134,6.01-2.842,6.278c-1.18,0.105-0.64,3.285-0.878,4.375
			c-0.424,1.939-1.632,2.888-2.078,4.768c-0.423,1.778-3.046,4.566-4.751,4.764C426.781,292.304,425.41,291.242,425.41,291.242z"/>
		<path fill="#DBEFFF" d="M412.885,339.496c-1.544-0.597-1.175-27.129,0.213-41.782l27.296,12.987
			c-0.138,12.474-1.713,22.317-0.219,37.518L412.885,339.496z"/>
		<path fill="#DBEFFF" d="M431.068,350.933c-6.743-2.459-13.167-5.152-16.941-9.781c-1.854-1.07-1.619-2.957,0.521-4.192h0.001
			c2.14-1.236,5.408-1.372,7.262-0.302l16.941,9.781c1.854,1.07,1.619,2.957-0.521,4.193l0,0
			C436.19,351.867,432.921,352.003,431.068,350.933z"/>
		<path fill="#DBEFFF" d="M440.394,310.701l-4.498-2.141c-0.185,12.16-1.675,21.927-0.207,36.854l-0.075-0.023
			c0.032,0.844-0.568,1.742-1.771,2.437l0,0c-2.14,1.235-5.408,1.371-7.262,0.301c-3.237-1.181-6.397-2.418-9.229-3.896
			c3.724,2.854,8.628,4.844,13.716,6.699c1.854,1.07,5.122,0.935,7.262-0.301l0,0c1.202-0.693,1.803-1.593,1.771-2.437l0.075,0.023
			C438.681,333.019,440.256,323.175,440.394,310.701z"/>
		<path fill="#2C4482" d="M443.149,283.118l-8.341,0.8c-0.297,0.028-0.562-0.191-0.592-0.487l0,0
			c-0.028-0.297,0.191-0.562,0.488-0.592l8.341-0.799c0.297-0.028,0.562,0.19,0.591,0.487l0,0
			C443.666,282.824,443.446,283.09,443.149,283.118z"/>
		<path fill="#DCEFFF" d="M434.785,299.217c-6.262-0.941-10.491,2.995-11.986-6.024l0,0c0.913-0.566,2.092-0.292,2.704,0.593
			c1.074,1.552,3.36,2.533,5.886,2.224c0.756-0.093,1.498,0.256,1.91,0.896L434.785,299.217z"/>
		<g>
			<path fill="#FFC2B0" d="M435.817,307.376c0.426,5.221,1.256,9.994,3.438,14.779c1.568,3.439,3.178,8.364,6.574,10.533
				c7.666,4.896,15.836-7.646,19.458-12.418c1.963-2.587-2.418-5.104-4.358-2.547c-2.051,2.703-9.625,14.547-13.528,9.438
				c-4.168-5.454-5.994-13.128-6.537-19.786C440.601,304.161,435.552,304.134,435.817,307.376L435.817,307.376z"/>
		</g>
		<path fill="#FFFFFF" d="M433.28,307.314c1.526,12.906,5.596,21.116,11.233,25.291c2.965,1.641,5.738-3.038,4.604-5.862
			c-5.613-4.992-7.585-12.776-8.119-21.663c-0.733-1.804-2.819-2.779-4.824-2.256l0,0C434.085,303.37,432.808,305.35,433.28,307.314
			z"/>
		<path fill="#FFC2B0" d="M458.768,322.339l0.729,0.585c1.358,1.09,3.362,0.869,4.452-0.489l2.453-3.056
			c1.091-1.359,0.871-3.363-0.488-4.454l-0.729-0.585c-1.359-1.09-3.363-0.87-4.453,0.488l-2.452,3.057
			C457.189,319.244,457.409,321.248,458.768,322.339z"/>
		<path fill="#1737A2" d="M431.364,288.005c-0.312,0.228-1.003,6.81,4.532,5.744s4.418-6.603,4.418-6.603s-4.393,1.143-5.609-4.308
			C433.488,277.39,431.364,288.005,431.364,288.005z"/>
		<path fill="#FFC2B0" d="M436.082,285.284c0.133,1.557-0.662,2.896-1.778,2.991c-0.122,0.011-0.242,0.006-0.36-0.013
			c-0.966-0.155-1.781-1.246-1.9-2.633c-0.134-1.557,0.662-2.896,1.777-2.991S435.948,283.728,436.082,285.284z"/>
	</g>
	<g opacity="0.4">
		<path fill="#A8C4E5" d="M252.815,339.939c1.135-1.086,1.394-2.792,0.93-4.505c-1.715-6.336-1.888-13.222-1.9-19.599
			c-0.004-2.258,0.009-2.513,0.25-4.699c-0.146,1.328,0.075-0.153,0.223-0.53c0.13-0.331,0.262-0.662,0.403-0.988
			c0.329-0.762,0.723-1.475,1.119-2.2c0.027-0.051,0.035-0.071,0.047-0.101c0.036-0.036,0.059-0.057,0.105-0.106
			c0.234-0.247,0.482-0.506,0.7-0.766c0.035-0.043,0.091-0.094,0.149-0.146c0.217-0.157,0.434-0.314,0.662-0.459
			c0.124-0.077,1.615-1.4,1.742-1.474l-8.35-4.938c-1.285,1.515-4.352,4.8-5.093,6.697c-1.454,3.721-1.312,7.681-1.23,11.758
			c0.134,6.623,0.683,13.322,2.466,19.909c0.114,0.422,0.313,0.808,0.572,1.157l-4.542,6.769c-1.278,2.638-1.751,4.605-0.023,5.527
			c2.352,0.297,3.357-0.214,6.128-2.799l4.882-5.833C252.714,341.445,253.317,341.178,252.815,339.939z M254.966,306.193
			C255.117,306.071,255.206,306.012,254.966,306.193L254.966,306.193z"/>
		<path fill="#A8C4E5" d="M266.056,307.386c-1.211,1.344-4.262,5.594-4.973,7.309c-1.374,3.32-1.717,6.891-2.511,10.393
			c-1.414,6.239-2.881,12.437-3.833,18.804c-0.275,1.841,0.56,3.328,1.824,4.295l-3.211,8.142c-0.696,2.875-0.753,4.931,1.095,5.539
			c2.321-0.131,3.186-0.826,5.327-3.919l3.517-6.732c0.436-1.416,1.023-1.733-0.06-3.174c0.359-0.467,0.618-1.059,0.728-1.791
			c0.924-6.175,2.289-12.213,3.704-18.253c0.354-1.507,0.576-3.04,0.862-4.564c0.152-0.817,0.315-1.634,0.514-2.438
			c0.09-0.363,0.189-0.723,0.289-1.083c0.026-0.096,0.042-0.159,0.053-0.204c0.024-0.057,0.053-0.125,0.093-0.223
			c0.782-1.922,4.621-5.449,5.982-6.672L266.056,307.386z"/>
	</g>
	<g>
		<path fill="#1F3B82" d="M234.946,340.744l5.189-7.731l4.067-1.966c3.732,5.186,2.801,4.692,1.73,6.593l-4.883,5.834
			c-2.771,2.584-3.776,3.095-6.128,2.799l0,0C233.196,345.35,233.667,343.383,234.946,340.744z"/>
		<path fill="#1F3B82" d="M247.23,351.353l3.428-8.689l3.514-2.711c4.639,4.513,3.644,4.189,2.997,6.288l-3.516,6.731
			c-2.142,3.094-3.006,3.788-5.327,3.92l0,0C246.478,356.283,246.534,354.228,247.23,351.353z"/>
		<g>
			<g>
				<path fill="#FFC2B0" d="M267.284,256.773c-3.791,4.723-6.475,8.824-8.033,14.713c-1.481,5.597-2.198,11.283-3.099,17.026
					c-0.558,3.56-6.492,2.051-5.932-1.518c1.033-6.591,1.909-13.081,3.764-19.46c1.688-5.807,4.889-10.138,8.631-14.8
					C264.844,249.958,269.5,254.011,267.284,256.773L267.284,256.773z"/>
			</g>
			<path fill="#FF9359" d="M259.43,250.227l-6.129,13.459c-0.759,4.31,9.611,7.238,10.579,3.805l4.647-13.528
				c0.607-2.2-0.698-4.655-3.019-5.677l0,0C263.09,247.219,260.41,248.075,259.43,250.227z"/>
			<g>
				<g>
					<g>
						<path fill="#1F3B82" d="M269.458,283.787c-5.743,2.162-11.587,4.089-17.43,6.04c-3.127,1.045-6.464,2.074-9.062,3.992
							c-2.545,1.88-4.155,4.442-5.285,7.333c-1.453,3.721-1.312,7.681-1.23,11.758c0.135,6.623,0.683,13.322,2.466,19.909
							c0.642,2.37,3.898,3.682,6.055,3.099c2.574-0.695,3.296-3.08,2.652-5.458c-1.716-6.336-1.889-13.222-1.9-19.599
							c-0.005-2.258,0.008-2.513,0.249-4.699c-0.146,1.328,0.075-0.153,0.223-0.53c0.13-0.332,0.263-0.662,0.403-0.988
							c0.329-0.762,0.723-1.475,1.119-2.2c0.351-0.64-0.645,0.634,0.153-0.207c0.234-0.247,0.482-0.506,0.7-0.767
							c0.188-0.225,0.91-0.72-0.079,0.013c0.29-0.215,0.583-0.423,0.891-0.616c0.685-0.429,1.421-0.779,2.167-1.113
							c-0.996,0.446,0.019-0.004,0.252-0.089c0.496-0.184,0.99-0.371,1.49-0.549c6.502-2.308,13.121-4.343,19.569-6.771
							c2.254-0.849,3.63-2.993,2.652-5.458C274.661,284.739,271.724,282.934,269.458,283.787L269.458,283.787z"/>
					</g>
				</g>
			</g>
			<g>
				<g>
					<g>
						<path fill="#1F3B82" d="M277.141,291.861c-5.091,3.089-10.386,6.025-15.098,9.601c-2.964,2.249-5.652,4.804-7.082,8.258
							c-1.374,3.32-1.718,6.89-2.512,10.392c-1.414,6.24-2.881,12.438-3.833,18.805c-0.829,5.545,8.39,7.91,9.221,2.359
							c0.923-6.175,2.289-12.213,3.704-18.253c0.353-1.507,0.576-3.04,0.861-4.565c0.153-0.817,0.315-1.633,0.515-2.438
							c0.089-0.363,0.188-0.724,0.288-1.084c0.239-0.865-0.272,0.603,0.146-0.426c1.039-2.554,2.404-4.069,4.589-5.664
							c4.664-3.405,9.759-6.308,14.727-9.321C287.483,296.604,281.978,288.928,277.141,291.861L277.141,291.861z"/>
					</g>
				</g>
			</g>
			<path fill="#21275E" d="M270.732,301.785l-11.304-5.88c-2.695-1.402-3.915-4.535-2.711-6.963h0.001
				c1.204-2.427,4.395-3.267,7.09-1.864l11.303,5.88c2.695,1.401,3.915,4.535,2.711,6.962l0,0
				C276.618,302.348,273.427,303.187,270.732,301.785z"/>
			<path fill="#FF9359" d="M257.246,284.333c1.196,0.072,4.358-10.128,2.216-31.448l29.058,14.232
				c-1.61,13.797,1.096,14.056-3.565,30.887L257.246,284.333z"/>
			<path fill="#FF9359" d="M273.622,291.961c0.688,1.106,10.121-3.583,9.548-20.981c-0.072-2.212,0.212-2.394,2.467-1.597
				l2.958-1.575c-0.535,11.238,1.293,14.649-0.783,25.223c-0.709,3.613-5.121,5.043-8.504,2.763L273.622,291.961z"/>
			<path fill="#FF9359" d="M278.175,300.606c-8.222-3.03-16.083-6.313-20.959-11.687c-2.293-1.279-2.174-3.404,0.266-4.722l0,0
				c2.439-1.318,5.932-3.222,8.225-1.942l20.016,12.176c2.293,1.278,1.011,2.669-1.429,3.987l-0.147-1.358
				C281.707,298.379,280.468,301.885,278.175,300.606z"/>
			<path fill="#FF9359" d="M285.873,295.21l-6.232-7.944c-10.752,15.674-18.714,3.771-21.827,2.286
				c4.907,4.555,11.713,7.696,19.188,10.452c2.293,1.278,6.166,1.246,8.605-0.072l0,0
				C288.046,298.613,288.166,296.488,285.873,295.21z"/>
			<path fill="#FF9359" d="M261.107,248.088c-1.782,1.845-1.628,3.151-1.651,5.986c-0.023,2.772,1.876,5.424,4.676,6.541
				l28.588,11.41c0,0,2.049-10.234-3.528-14.129c-3.005-2.098-7.663-5.434-11.321-8.066
				C272.497,245.965,265.224,243.825,261.107,248.088z"/>
			<path fill="#FFC2B0" d="M273.321,252.799l-3.562-11.794l7.736,2.814l2.899,9.63C280.996,255.028,275.815,258.868,273.321,252.799
				z"/>
			<path fill="#EA8A6C" d="M272.57,250.06c0.144,0.3,3.663-0.856,3.512-1.233c0,0-1.337,2.222-3.077,2.917L272.57,250.06z"/>
			<g>
				<path fill="#FFC2B0" d="M291.398,263.944c1.092,5.133,2.6,10.229,3.555,15.374c0.826,4.452,2.319,10.351,0.215,14.415
					c-3.533,6.821-15.414,4-21.953,5.922c-3.582,1.052-5.76-4.457-2.188-5.506c3.529-1.038,7.172-1.352,10.938-1.492
					c3.042-0.113,7.213,0.396,8.062-2.914c0.952-3.705-0.714-9.061-1.557-12.902c-0.946-4.308-2.136-8.583-3.053-12.896
					C284.64,260.291,290.626,260.315,291.398,263.944L291.398,263.944z"/>
			</g>
			<path fill="#FFC2B0" d="M254.129,284.649L254.129,284.649c1.644,0.851,2.392,2.757,1.663,4.238l-2.523,5.127
				c-0.729,1.481-2.671,1.997-4.315,1.147l0,0c-1.644-0.851-2.392-2.758-1.662-4.238l2.523-5.127
				C250.544,284.315,252.486,283.8,254.129,284.649z"/>
			<path fill="#FF9359" d="M283.188,263.152l2.497,15.268c1.763,4.291,11.676,1.808,10.561-1.791l-3.721-14.595
				c-0.724-2.3-3.119-3.882-5.539-3.66l0,0C284.463,258.605,282.789,260.713,283.188,263.152z"/>
			<g>
				<path fill="#A8C4E5" d="M275.247,298.529l-2.534-0.726l-0.82,0.315l-0.227-0.402L249,285.931
					c-0.273-0.142-0.726-0.124-1.005,0.04l-8.654,5.074l-0.015-0.142l-1.632,0.653l0.073,0.673h0.012
					c0.028,0.065,0.089,0.126,0.181,0.174l23.586,12.266c0.031,0.016,0.05,0.047,0.062,0.091c0.492,1.806,1.315,3.423,2.855,2.484
					l9.584-5.648c0.761-0.417,1.213-1.189,1.206-2.062L275.247,298.529z"/>
				<path fill="#E1EAF4" d="M262.512,306.543l-27.161-14.124c-0.314-0.163-0.309-0.451,0.014-0.64l11.542-6.769
					c0.322-0.188,0.843-0.209,1.157-0.046l27.161,14.124c0.314,0.163,0.308,0.452-0.014,0.641l-11.542,6.768
					C263.347,306.686,262.827,306.707,262.512,306.543z"/>
				<path fill="#A8C4E5" d="M263.273,297.446l-6.573-3.418c-0.076-0.04-0.075-0.109,0.003-0.155l2.794-1.638
					c0.078-0.046,0.203-0.051,0.279-0.012l6.573,3.419c0.076,0.039,0.075,0.109-0.003,0.154l-2.793,1.638
					C263.475,297.48,263.349,297.485,263.273,297.446z"/>
				<path fill="#FFFFFF" d="M260.129,290.648c-0.175-0.644-0.786-1.406-1.366-1.704l-26.941-13.803
					c-0.24-0.122-0.437-0.146-0.572-0.085l-0.002-0.001l-0.003,0.003c-0.048,0.021-0.089,0.054-0.121,0.097l-0.75,0.845l0.759-0.065
					l4.041,14.925c0.175,0.645,0.786,1.407,1.366,1.704l25.476,13.052l0.867,0.833l0.119,0.205c0.497,0.101,1.576-0.689,1.576-0.689
					L260.129,290.648z"/>
				<path fill="#18BDF7" d="M262.677,307.267l-26.942-13.803c-0.579-0.297-1.191-1.06-1.365-1.703l-4.087-15.09
					c-0.174-0.644,0.154-0.925,0.734-0.628l26.942,13.803c0.579,0.297,1.191,1.06,1.365,1.704l4.087,15.089
					C263.585,307.283,263.257,307.564,262.677,307.267z"/>
				<path fill="#FFFFFF" d="M247.569,292.657c0.217,0.802-0.525,0.981-1.658,0.401c-1.132-0.58-2.227-1.7-2.443-2.502
					s0.525-0.981,1.657-0.401C246.257,290.735,247.351,291.855,247.569,292.657z"/>
			</g>
			<path fill="#FFC2B0" d="M263.582,299.295L263.582,299.295c-0.777-1.72,0.01-3.588,1.75-4.151l6.023-1.952
				c1.74-0.564,3.801,0.382,4.579,2.103l0,0c0.777,1.72-0.011,3.588-1.751,4.152l-6.023,1.951
				C266.419,301.962,264.359,301.016,263.582,299.295z"/>
			<g>
				<g>
					<path fill="#FCFEFF" d="M270.902,250.658c-1.115,3.247,3.032,5.762,5.839,5.494c1.415-0.135,3.523-0.443,4.372-1.75
						c0.795-1.227,0.572-3.443-0.179-4.62c-0.688-1.078-2.415-0.079-1.722,1.006c0.396,0.62,0.636,2.149,0.017,2.684
						c-0.589,0.509-2.14,0.713-2.894,0.72c-1.42,0.012-4.118-1.238-3.512-3.004C273.242,249.972,271.317,249.45,270.902,250.658
						L270.902,250.658z"/>
				</g>
			</g>
			<g>
				<path fill="#FFC2B0" d="M273.068,250.136l-2.208,0.231c-3.402,0.357-6.783-2.039-7.515-5.324l-2.414-10.846
					c-0.731-3.285,1.453-6.264,4.855-6.621l2.208-0.232c3.402-0.357,6.784,2.039,7.515,5.324l2.414,10.846
					C278.655,246.799,276.47,249.779,273.068,250.136z"/>
				<path fill="#1737A2" d="M270.394,235.844c-2.128,1.221-4.07,0.791-6.827,0.02c-2.992-0.836-4.318-3.369-2.491-5.492
					c0.987-1.147,1.588-2.367,3.931-3.536c6.646-3.316,14.86-0.624,16.608,7.233c0,0,2.166,8.673-1.918,11.929
					c-0.731,0.583-1.933,0.233-2.354-0.672l0,0c0,0,2.192-2.533-1.112-4.363c-0.999-0.553-2.138-1.995-2.297-3.31
					C273.772,236.32,271.537,235.188,270.394,235.844z"/>
				<path fill="#FFC2B0" d="M278.853,243.708c-0.749,0.951-1.943,0.864-2.669-0.194c-0.725-1.058-0.706-2.685,0.043-3.636
					c0.749-0.95,1.943-0.863,2.669,0.194C279.621,241.129,279.601,242.757,278.853,243.708z"/>
			</g>
			<path fill="#1737A2" d="M263.377,235.767c-0.042,0.195,7.448,1.68,10.251,6.126c0.51,0.808,1.826,0.456,2.087-0.382
				c0.472-1.511,0.676-3.733-0.975-5.825C271.872,232.049,263.68,234.344,263.377,235.767z"/>
		</g>
	</g>
	<path fill="#18BDF7" d="M29.799,196.503l-7.059,4.075c-0.956,0.552-1.739-0.04-1.739-1.315l0,0c0-1.275,0.783-2.771,1.739-3.323
		l7.059-4.075c0.957-0.552,1.739,0.04,1.739,1.315l0,0C31.539,194.456,30.756,195.951,29.799,196.503z"/>
	<path fill="#18BDF7" d="M29.799,170.243l-7.059,4.075c-0.956,0.552-1.739-0.039-1.739-1.314l0,0c0-1.275,0.783-2.771,1.739-3.323
		l7.059-4.075c0.957-0.552,1.739,0.039,1.739,1.314l0,0C31.539,168.195,30.756,169.69,29.799,170.243z"/>
	<path fill="#18BDF7" d="M29.799,222.143l-7.059,4.075c-0.956,0.552-1.739-0.039-1.739-1.314l0,0c0-1.275,0.783-2.771,1.739-3.323
		l7.059-4.075c0.957-0.552,1.739,0.039,1.739,1.314l0,0C31.539,220.095,30.756,221.591,29.799,222.143z"/>
	<path fill="#18BDF7" d="M29.799,247.782l-7.059,4.075c-0.956,0.552-1.739-0.039-1.739-1.314l0,0c0-1.275,0.783-2.771,1.739-3.323
		l7.059-4.075c0.957-0.552,1.739,0.04,1.739,1.315l0,0C31.539,245.735,30.756,247.23,29.799,247.782z"/>
	<path fill="#18BDF7" d="M29.799,276.176l-7.059,4.075c-0.956,0.553-1.739-0.039-1.739-1.314l0,0c0-1.275,0.783-2.771,1.739-3.323
		l7.059-4.075c0.957-0.552,1.739,0.04,1.739,1.315l0,0C31.539,274.128,30.756,275.624,29.799,276.176z"/>
</g>
</svg>
