<?xml version="1.0" encoding="UTF-8"?>
<svg width="151px" height="60px" viewBox="0 0 151 60" version="1.1" xmlns="http://www.w3.org/2000/svg" xmlns:xlink="http://www.w3.org/1999/xlink">
    <!-- Generator: Sketch 52.6 (67491) - http://www.bohemiancoding.com/sketch -->
    <title>Artboard Copy</title>
    <desc>Created with Sketch.</desc>
    <g id="Artboard-Copy" stroke="none" stroke-width="1" fill="none" fill-rule="evenodd">
        <rect fill="#FFFFFF" x="0" y="0" width="150.84375" height="60"></rect>
        <g id="Group" transform="translate(87.000000, 5.000000)" stroke="#4A4A4A" stroke-linecap="round" stroke-linejoin="round" stroke-width="2.3">
            <path d="M0.786034483,13.2538448 C7.63293103,1.31867241 22.8567241,-2.8052931 34.7948276,4.03867241" id="Stroke-12"></path>
            <path d="M44.007069,38.0474655 C37.1601724,49.9826379 21.9363793,54.1066034 9.99827586,47.2626379" id="Stroke-14" stroke-dasharray="8"></path>
            <path d="M57.9750862,20.3081107 C51.1281897,32.2432832 35.9043966,36.3672487 23.9662931,29.5232832" id="Stroke-14" stroke-dasharray="8" transform="translate(40.970690, 26.568669) rotate(-73.000000) translate(-40.970690, -26.568669) "></path>
        </g>
        <g id="Group-15" transform="translate(18.000000, 1.000000)" fill="#4A4A4A" font-family="Quicksand-Italic, Quicksand" font-size="41.0344828" font-style="italic" font-weight="normal" letter-spacing="0.8060345" opacity="0.896833147">
            <text id="sug">
                <tspan x="0" y="39">s</tspan>
                <tspan x="20.995" y="39" letter-spacing="-0.219827586">ug</tspan>
            </text>
        </g>
        <g id="Group-2" transform="translate(96.000000, 20.000000)" fill="#FFFFFF" stroke="#9B9B9B" stroke-width="1.46551724">
            <path d="M18.6157759,2.17306897 L16.7868103,12.7247931 C15.989569,17.0656552 12.0062931,20.4099655 7.66836207,20.448069 C5.7162931,20.448069 4.04267241,19.7328966 2.80577586,18.498931 C1.61284483,17.303069 0.897672414,15.6323793 0.897672414,13.7623793 C0.897672414,13.3227241 0.938706897,12.8449655 1.01784483,12.3672069 L2.88784483,1.85651724 C3.00801724,1.33772414 3.48577586,0.977206897 4.00456897,1.05927586 C4.48232759,1.13841379 4.83991379,1.6572069 4.71974138,2.17306897 L2.88784483,12.7247931 C2.84974138,13.0853103 2.80577586,13.4428966 2.80577586,13.7623793 C2.84974138,16.5468621 4.71974138,18.498931 7.66836207,18.5399655 C10.9716379,18.581 14.3569828,15.7525517 14.9109483,12.3672069 L16.7868103,1.85651724 C16.8630172,1.33772414 17.3407759,0.977206897 17.859569,1.05927586 C18.3783621,1.13841379 18.7359483,1.6572069 18.6157759,2.17306897 Z" id="Stroke-5"></path>
            <path d="M21.1572759,19.4160517 L24.226069,1.77415517 C24.3052069,1.2582931 24.824,0.938810345 25.3398621,0.976913793 C25.8586552,1.09708621 26.2191724,1.57777586 26.099,2.13467241 L22.9921034,19.7326034 C22.9129655,20.1722586 22.5143448,20.4888103 22.0717586,20.4888103 L21.9164138,20.4888103 C21.3976207,20.4096724 21.0400345,19.8938103 21.1572759,19.4160517 Z" id="Stroke-9"></path>
        </g>
    </g>
</svg>