<svg width="509" height="239" xmlns="http://www.w3.org/2000/svg" xmlns:xlink="http://www.w3.org/1999/xlink">
  <defs>
    <path id="a" d="M0 0h1.409v1.893H0z"/>
    <path id="c" d="M0 0h2.525v2.973H0z"/>
    <path id="e" d="M0 0h3.747v4.815H0z"/>
    <path id="g" d="M.15.13h16.448v9.908H.149z"/>
    <path id="i" d="M.137 16.632L.163 32.66 28.624 16.27V.228z"/>
    <path id="k" d="M.368.181h5.44v8.756H.367z"/>
    <path id="m" d="M0 .014h13.305V12.97H0z"/>
    <path id="o" d="M.453.186H19.59V14.5H.453z"/>
    <path id="q" d="M0 .457h18.477V18.22H0z"/>
    <path id="r" d="M.24.126h6.55V52.5H.24z"/>
    <path id="s" d="M.022.228h4.894V25.09H.022z"/>
    <path id="t" d="M.181.027h16.08v14.28H.18z"/>
  </defs>
  <g fill="none" fill-rule="evenodd">
    <path d="M6.46 132.094c-3.381-1.954-3.381-6.84 0-8.793l81.576-47.126a16.135 16.135 0 0 1 16.143 0l80.288 46.383c4.226 2.44 4.226 8.544 0 10.985L105.07 179.41a16.697 16.697 0 0 1-16.706 0L6.46 132.094z" fill="#F5F6F6" opacity=".512"/>
    <path d="M84.442 148.4L2.537 101.082c-3.383-1.954-3.383-6.84 0-8.793l81.575-47.126a16.134 16.134 0 0 1 16.143 0l80.288 46.383c4.226 2.44 4.226 8.544 0 10.985L101.148 148.4a16.699 16.699 0 0 1-16.706 0M225.383 104.999l-50.81-28.73a3.051 3.051 0 0 1 0-5.34l50.606-28.615a10.197 10.197 0 0 1 10.014 0L285 70.478a3.812 3.812 0 0 1 0 6.67l-49.253 27.85a10.554 10.554 0 0 1-10.364 0" fill="#D7D9D9"/>
    <path d="M84.441 142.4L2.537 95.082c-3.383-1.954-3.383-6.84 0-8.793l81.575-47.126a16.134 16.134 0 0 1 16.143 0l80.288 46.383c4.226 2.44 4.226 8.544 0 10.985L101.148 142.4a16.7 16.7 0 0 1-16.707 0M225.383 101.999l-50.81-28.73a3.051 3.051 0 0 1 0-5.34l50.606-28.615a10.197 10.197 0 0 1 10.014 0L285 67.478a3.812 3.812 0 0 1 0 6.67l-49.253 27.85a10.554 10.554 0 0 1-10.364 0" fill="#EBEBEB"/>
    <path d="M86.888 68.942l11.495-7.776-4.17-16.456c-.387-1.526-2.133-2.175-3.627-1.348l-8.193 4.539c-1.138.63-1.746 1.924-1.175 4.497l4.037 15.93a1.068 1.068 0 0 0 1.633.614" fill="#4C73DB"/>
    <path d="M108.713 66.943c.443-2.254.674-4.918-.1-7.118-.641-1.823-2.071-2.497-3.809-3.184a24.654 24.654 0 0 0-3.24-1.008c-.37-.09-.743-.171-1.113-.257-.109-.025-.26-.093-.37-.089-.206.009-.128-.135.098.173l.063.477-.14.242c.531-.453-.177-1.382-.758-.972-.872.615-.926 1.917-.997 2.88-.089 1.214-.043 2.43-.039 3.646.003.796 1.254.798 1.251 0-.004-.962-.034-1.923 0-2.885.018-.523.043-1.05.125-1.566.034-.214.087-.861.291-1.006l-.758-.972c-1.22 1.041 1.95 1.505 2.306 1.595 1.176.297 2.343.66 3.455 1.146.871.38 1.722.715 2.192 1.573.712 1.3.701 2.975.631 4.412a17.995 17.995 0 0 1-.294 2.584c-.153.778 1.052 1.112 1.206.33" fill="#3C5CB0"/>
    <path d="M86.34 68.386l13.034-7.22-4.17-16.455c-.387-1.527-2.134-2.176-3.628-1.349l-8.193 4.539c-1.137.63-1.746 1.924-1.451 3.087l4.408 17.398z" fill="#3A3A3A"/>
    <path d="M86.08 69.43l-.011-.956 1.33-.045 10.411-5.951c.6-.343 1.657-.3 2.349.096l8.963 5.123.839-.028.021.95c0 .22-.131.43-.403.585l-11.338 6.48c-.6.343-1.656.3-2.348-.096L86.642 70.3c-.321-.183-.508-.411-.558-.637h-.001v-.004a.546.546 0 0 1-.003-.23" fill="#3C5CB0"/>
    <path d="M98.241 74.584l11.338-6.48c.6-.343.523-.947-.169-1.342l-9.25-5.288c-.693-.396-1.75-.44-2.35-.097l-11.337 6.48c-.6.343-.524.948.168 1.343l9.251 5.288c.693.395 1.75.439 2.35.096" fill="#2C4482"/>
    <path d="M92.707 70.794l4.515-2.58c.239-.137.209-.377-.067-.535l-3.684-2.106c-.275-.157-.696-.174-.935-.038l-4.515 2.58c-.238.137-.208.378.068.535l3.683 2.106c.276.157.697.175.935.038" fill="#3C5CB0"/>
    <g>
      <path d="M130.884 56.284l-8.341 6.623c-1.363.857-2.385.007-2.384-1.466L120 59.042c.001-1.473 1.117-3.38 2.48-4.237l8.41-5.293c1.363-.857 2.476-.353 2.475 1.12l-.002 1.415c-.001 1.473-1.117 3.38-2.479 4.237" fill="#3A3A3A"/>
      <path d="M146.454 78.752c.27-.041.456-.3.416-.577l-2.008-13.911a.496.496 0 0 0-.561-.428.506.506 0 0 0-.416.577l2.008 13.911c.04.277.29.469.56.428" fill="#283D75"/>
      <path d="M130.571 55.622l4.214-11.457c.693-1.885 2.621-2.709 4.176-1.785l6.214 3.695c1.12.665 1.747 2.08 1.567 3.535l-1.846 14.913-14.325-8.901z" fill="#3A3A3A"/>
      <path d="M142.704 66.9l-8.41 5.293c-1.363.857-2.416.455-2.34-.894l.072-1.296c.075-1.35 1.251-3.154 2.613-4.011l8.411-5.293c1.363-.858 2.416-.455 2.34.894l-.072 1.296c-.075 1.348-1.252 3.154-2.614 4.011" fill="#3A3A3A"/>
    </g>
    <g>
      <path d="M127.884 50.447c-.533 1.344-1.153 2.517-2.27 3.449-1.181.985-2.327 1.923-3.358 3.078-.825.925.534 2.297 1.363 1.367 1.12-1.255 2.412-2.213 3.65-3.329 1.213-1.092 1.88-2.557 2.473-4.05.458-1.157-1.404-1.66-1.858-.515" fill="#FFC2B0"/>
      <path d="M129.306 44.393l-2.239 5.716c-.26 1.775 3.694 2.484 4.039 1.053l1.676-5.676a1.834 1.834 0 0 0-1.182-2.155 1.824 1.824 0 0 0-2.294 1.062" fill="#9C2AA0"/>
      <path d="M128.123 59.373c.302.461 2.521-5.528 1.277-13.827l11.108 5.35c-.31 5.391-2.077 7.172-3.458 13.767l-8.927-5.29z" fill="#9C2AA0"/>
      <path d="M134.237 62.346c.297.415 6.12-3.61 5.25-10.36-.11-.857-.715-.66.153-.403l1.039-.68c.226 4.38 1.98 4.624.195 10.578-.41 1.366-2.656 3.99-3.998 3.182l-2.639-2.317z" fill="#9C2AA0"/>
      <path d="M130.027 43.517c-.547.54-.59 1.289-.627 2.029-.056 1.12.504 2.646 1.538 3.07l10.974 4.327s1.47-3.59-.536-5.105c-1.081-.817-3.531-2.667-4.845-3.693-1.93-1.507-4.76-2.348-6.504-.628" fill="#9C2AA0"/>
      <path d="M135.422 46.342l-1.114-4.124 2.824.785.906 3.367c.196.549-1.798 2.075-2.616-.028" fill="#FFC2B0"/>
      <path d="M135.302 45.518l-.802.027a2.256 2.256 0 0 1-2.32-2.178l-.135-4.09a2.257 2.257 0 0 1 2.17-2.329l.8-.027a2.256 2.256 0 0 1 2.32 2.178l.137 4.091a2.257 2.257 0 0 1-2.17 2.328M138.314 41.96c.15.427-.024 1.018-.39 1.318" fill="#FFC2B0"/>
      <path d="M135.166 45.522s1.157-.594 1.162-.605M135.344 46.015l-.192-.57s1.157-.594 1.162-.605" fill="#EA8A6C"/>
      <path d="M134.556 38.992c-.73.253-1.55.34-2.3.05-1.01-.39-1.722-1.813-.93-2.553.427-.4 1.524-.76 2.436-1.131 2.586-1.054 5.39.277 5.488 3.24 0 0 .433 3.664-1.608 4.495a.451.451 0 0 1-.478-.1l-.015-.014a.47.47 0 0 1-.1-.53c.187-.428.358-1.252-.664-1.872-.214-.13-.321-.369-.364-.651-.105-.701-.797-1.165-1.465-.934" fill="#283D75"/>
      <path d="M138.15 40.776c.15.428-.025 1.018-.391 1.318" fill="#FFC2B0"/>
      <g transform="translate(136.826 40.52)">
        <mask id="b" fill="#fff">
          <use xlink:href="#a"/>
        </mask>
        <path d="M.972 1.721c-.36.3-.771.197-.919-.231C-.095 1.062.077.472.436.172c.36-.3.772-.197.92.231.148.428-.024 1.018-.384 1.318" fill="#FFC2B0" mask="url(#b)"/>
      </g>
      <path d="M140.528 56.773c.006 1.067-.04 2.394-.985 3.09-.755.556-1.84.65-2.738.744-2.654.278-5.215.482-7.637 1.717-1.106.564-.132 2.233.972 1.67 2.724-1.388 5.66-1.076 8.548-1.73 2.766-.627 3.782-2.797 3.767-5.49-.007-1.245-1.933-1.247-1.927 0" fill="#FFC2B0"/>
      <path d="M139.38 50.365l.404 6.129c.52 1.717 4.397.665 4.1-.777l-.896-5.851a1.827 1.827 0 0 0-1.984-1.444 1.83 1.83 0 0 0-1.624 1.943" fill="#9C2AA0"/>
    </g>
    <g>
      <path d="M64.317 106.523l-.134-.017a.73.73 0 0 1-.63-.817l2.866-22.302a.73.73 0 0 1 .816-.63l.134.017a.729.729 0 0 1 .63.816l-2.866 22.302a.73.73 0 0 1-.816.63M93.324 123.792a.79.79 0 0 0 .719-.854l-3.1-35.98a.788.788 0 1 0-1.571.136l3.099 35.979c.037.435.42.756.853.719" fill="#4A4A4A"/>
      <path fill="#2C4482" d="M90.938 105.016l1.5-1.027-.428-4.322-1.599.25z"/>
      <path d="M142.072 94.155l.19-.029a.557.557 0 0 0 .47-.633l-3.447-23.24a.557.557 0 0 0-.633-.47l-.19.028a.557.557 0 0 0-.47.633l3.447 23.241a.558.558 0 0 0 .633.47" fill="#4A4A4A"/>
      <path fill="#A8C4E5" d="M138.056 70.698h4.183v-2.43h-4.183zM62 86.231h4.183v-2.43H62z"/>
      <path d="M90.041 101.348l51.665-29.828c.81-.468.708-1.285-.227-1.825l-24.108-13.918c-.935-.54-2.35-.599-3.16-.131L62.547 85.474c-.81.468-.709 1.285.226 1.825l24.108 13.918c.935.54 2.35.599 3.16.131" fill="#D7E8F7"/>
      <path d="M90.041 99.018l51.665-29.829c.81-.467.708-1.284-.227-1.824l-24.108-13.919c-.935-.54-2.35-.598-3.16-.13L62.547 83.143c-.81.468-.709 1.284.226 1.824l24.108 13.919c.935.54 2.35.599 3.16.13" fill="#FDFFFF"/>
    </g>
    <g>
      <path d="M95.812 50.403c1.692.939 3.633 1.95 5.607 2.208 1.344.177 2.99-.766 2.28-2.354-.497-1.114-1.496-1.968-2.37-2.708a14.094 14.094 0 0 0-4.493-2.584c-1.21-.419-1.957 1.726-.753 2.143 2.05.71 4.012 2.035 5.381 3.765.1.126.333.593.383.592.098-.002-.076.026-.016-.166-.013-.172.055-.332.205-.477.286-.298.316-.427.09-.386-.19-.115-.635-.105-.868-.174-1.482-.442-4.47-1.483-5.812-2.227-1.105-.614-.75 1.75.366 2.368" fill="#9C2AA0"/>
      <g transform="translate(95.857 43.382)">
        <mask id="d" fill="#fff">
          <use xlink:href="#c"/>
        </mask>
        <path d="M2.042 2.85a.962.962 0 0 1-1.304-.357L.124 1.419A.95.95 0 0 1 .484.123.963.963 0 0 1 1.786.48l.614 1.074a.95.95 0 0 1-.359 1.296" fill="#FFC2B0" mask="url(#d)"/>
      </g>
      <g transform="translate(93.821 41.697)">
        <mask id="f" fill="#fff">
          <use xlink:href="#e"/>
        </mask>
        <path d="M3.508 4.156l-1.72.636a.367.367 0 0 1-.473-.214L.023 1.128A.364.364 0 0 1 .24.66L1.96.023c.19-.07.402.026.473.215l1.291 3.45c.071.188-.026.398-.216.468" fill="#2C4482" mask="url(#f)"/>
      </g>
      <path fill="#D0E7F4" d="M96.81 45.463l-1.678.62-1.203-3.212 1.678-.62zM98.772 63.608c-.221.375-3.398-10.178-3.798-16.37l-6.457.896c.762 4.617.817 13.905 1.113 19.599l9.142-4.125z"/>
      <path d="M92.47 48.44l.388-3.735-2.601.956-.314 3.05c-.097.5 2.086 1.655 2.526-.272" fill="#FFC2B0"/>
      <path d="M88.022 48.858s3.533 2.877 5.308 10.47c.731 3.132.485 6.13.905 7.32.267.754.919.67.25 1.114-1.047.696-2.338 1.156-3.826 1.098-.604-.023-2.339-2.017-2.45-2.567-.293-4.708-1.5-7.87-1.855-13.04l-.074-2.019c.004-.21-.408-.329-.278-.522l2.02-1.854zM93.056 47.068S95.916 52 96.84 65.134c.031.444.55.69.937.444.412-.26.856-.612 1.186-.887.302-.252.442-.637.366-1.014-.525-2.601-2.224-13.082-2.224-13.082s-.314-4.636-4.003-4.096c-4.382.64-.046.57-.046.57" fill="#9C2AA0"/>
      <path d="M94.853 46.684c.613 1.74 1.623 3.7 1.515 4.972l-.896-.044.748 1.524.04 6.219s-.702-6.457-3.54-13.056c.845-.087 1.132.054 2.133.385" fill="#4A4A4A"/>
      <path d="M92.165 47.658l.774.026c1.191.038 2.16-.871 2.153-2.022l-.022-3.8c-.007-1.152-.988-2.125-2.18-2.164l-.773-.026c-1.19-.039-2.16.871-2.153 2.022l-.071 2.775c.006 1.151 1.08 3.15 2.272 3.19" fill="#FFC2B0"/>
      <path d="M92.026 42.502c.823.369 1.313.34 2.195.006.958-.362 1.078-1.57.286-2.258-.427-.371-.462-.585-1.355-.93-2.532-.98-5.416.36-5.4 3.114 0 0 .095 3.617 2.388 4.174l.106-1.152s-.56-.319-.058-.82c.138-.138.34-.294.633-.47.317-.19.37-.632.321-1.09-.048-.463.442-.772.884-.574" fill="#715154"/>
      <path d="M89.554 45.576c.358.28.75.183.877-.215.127-.397-.061-.945-.42-1.224-.357-.28-.75-.183-.876.214-.127.398.06.946.419 1.225" fill="#FFC2B0"/>
      <path d="M85.516 51.743c-.299 2.655-.444 5.302-.495 7.972-.014.72-.078 1.467.119 2.169.217.778.778 1.334 1.414 1.798 1.487 1.085 3.091 2.04 4.631 3.05 1.484.973 2.865-1.396 1.39-2.363-1.415-.929-2.832-1.855-4.246-2.787-.506-.333-.58-.447-.57-1.047.008-.534.02-1.068.031-1.602.047-2.407.21-4.798.48-7.19.083-.736-.692-1.369-1.377-1.369-.814 0-1.294.631-1.377 1.369" fill="#9C2AA0"/>
      <path d="M87.475 49.267l2.135 4.414 1.144-.297-.035 1.824 2.8 4.9s-.747-4.157-2.793-8.52c-.54-1.15-1.37-2.645-1.272-3.778-.761.446-1.349.706-1.979 1.457" fill="#4A4A4A"/>
    </g>
    <g>
      <g transform="translate(98.254 65.72)">
        <mask id="h" fill="#fff">
          <use xlink:href="#g"/>
        </mask>
        <path fill="#A8C4E5" mask="url(#h)" d="M.15 6.37l6.116 3.669 10.332-6.087L10.392.13z"/>
      </g>
      <path d="M93 68.975l.002-.319.39.16.083-.204 9.745-5.931c.117-.071.324-.062.46.02l4.195 2.554v-.071l.776.328v.339h-.005a.156.156 0 0 1-.074.088l-10.14 6.172c-.118.071-.325.062-.46-.02l-4.86-2.958c-.074-.045-.112-.103-.112-.158z" fill="#A8C4E5"/>
      <path d="M98.437 71.774l10.14-6.173c.118-.071.103-.197-.032-.28l-4.86-2.957c-.135-.082-.342-.091-.46-.02l-10.14 6.172c-.117.072-.102.198.033.28l4.86 2.957c.135.083.342.092.459.02" fill="#E1EAF4"/>
      <path d="M97.744 67.798l2.454-1.493c.029-.018.025-.048-.008-.068l-1.176-.716c-.032-.02-.082-.022-.111-.005l-2.454 1.494c-.028.017-.025.047.008.067l1.176.716c.033.02.083.022.111.005" fill="#A8C4E5"/>
      <path d="M98.696 64.828c.04-.282.25-.615.467-.745l10.068-6.032c.089-.053.166-.063.222-.037h.003c.02.01.037.025.052.043l.332.37-.302-.03-.957 6.523c-.041.281-.25.614-.467.744l-9.52 5.704-.307.364-.039.09c-.192.044-.654-.301-.654-.301l1.102-6.693z" fill="#FFF"/>
      <path d="M98.403 72.09l10.068-6.032c.216-.13.426-.463.467-.744l.967-6.595c.042-.28-.1-.404-.317-.274L99.52 64.477c-.217.13-.426.463-.467.744l-.968 6.594c-.041.282.101.405.318.275" fill="#84868B"/>
      <path d="M103.753 65.706c-.051.35.25.428.673.175.424-.254.808-.744.86-1.093.05-.351-.25-.43-.674-.176-.423.254-.808.743-.859 1.094" fill="#FFF"/>
    </g>
    <g>
      <path fill="#FDFFFF" d="M229.21 38L201 54.37l28.386 16.473 28.488-16.404z"/>
      <g transform="translate(229.25 54.211)">
        <mask id="j" fill="#fff">
          <use xlink:href="#i"/>
        </mask>
        <path mask="url(#j)" d="M.137 16.632L.163 32.66 28.624 16.27V.228z"/>
      </g>
      <path fill="#D7D9D9" d="M201.042 70.405l28.386 16.473V70.842l-28.386-16.473z"/>
      <path fill="#D7D9D9" d="M257.636 70.37L229.25 86.841V70.806l28.386-16.473z"/>
    </g>
    <g>
      <path d="M208.438 83.437l1.983-3.538 1.555-.899c1.426 2.372 1.07 2.147.661 3.016l-1.866 2.67c-1.059 1.181-1.443 1.415-2.342 1.28-.66-.423-.48-1.322.009-2.529M214.204 88.711l1.566-3.59L217.375 84c2.119 1.865 1.664 1.731 1.369 2.599l-1.606 2.781c-.978 1.279-1.373 1.565-2.433 1.62-.844-.251-.819-1.1-.5-2.289" fill="#1F3B82"/>
      <path d="M221.769 49.052c-1.5 1.951-2.563 3.645-3.18 6.077-.586 2.311-.87 4.66-1.226 7.032-.221 1.47-2.57.847-2.348-.627.408-2.722.755-5.402 1.49-8.037.668-2.398 1.935-4.187 3.416-6.112.883-1.147 2.726.527 1.848 1.667" fill="#FFC2B0"/>
      <path d="M218.401 45.02l-2.386 5.721c-.295 1.833 3.741 3.078 4.118 1.618l1.81-5.751c.236-.935-.273-1.979-1.176-2.413-.941-.454-1.985-.09-2.366.825" fill="#9C2AA0"/>
      <path d="M222.413 60.09c-2.33.907-4.701 1.715-7.073 2.532-1.268.439-2.623.87-3.677 1.674-1.033.788-1.686 1.862-2.145 3.074-.59 1.56-.532 3.22-.499 4.928.055 2.776.277 5.584 1 8.345.261.994 1.582 1.544 2.458 1.3 1.045-.292 1.337-1.292 1.076-2.289-.696-2.655-.767-5.542-.771-8.215-.002-.946.003-1.053.1-1.97-.059.557.031-.064.091-.222.053-.139.106-.277.164-.414.133-.32.293-.618.454-.922.142-.268-.262.265.062-.087.095-.104.196-.212.284-.321.077-.094.37-.302-.032.005.118-.09.237-.177.362-.258.277-.18.576-.327.88-.467-.405.187.006-.002.101-.037.202-.077.402-.156.605-.23 2.638-.967 5.324-1.82 7.941-2.838.915-.356 1.473-1.255 1.077-2.288-.346-.9-1.538-1.657-2.458-1.3" fill="#1F3B82"/>
      <path d="M225.125 63.272c-1.982 1.276-4.043 2.49-5.878 3.967-1.154.93-2.2 1.985-2.757 3.412-.535 1.373-.668 2.848-.977 4.295-.55 2.579-1.122 5.14-1.492 7.771-.324 2.292 3.265 3.27 3.589.975.36-2.552.89-5.047 1.442-7.543.137-.623.224-1.256.335-1.887.06-.338.123-.675.2-1.007.035-.15.074-.299.113-.448.093-.357-.106.249.056-.176.405-1.055.936-1.682 1.787-2.34 1.816-1.408 3.799-2.607 5.733-3.853 1.875-1.207-.268-4.38-2.151-3.166" fill="#1F3B82"/>
      <path d="M223.914 67.704l-4.617-2.562c-1.1-.61-1.6-1.976-1.107-3.034.492-1.057 1.795-1.423 2.896-.812l4.617 2.562c1.1.61 1.6 1.976 1.107 3.034-.491 1.057-1.795 1.423-2.896.812" fill="#21275E"/>
      <path d="M218 60.243c.497.03 1.812-4.265.921-13.243L231 52.993c-.67 5.81.456 5.92-1.482 13.007L218 60.243z" fill="#9C2AA0"/>
      <path d="M225 63.795c.271.495 3.993-1.601 3.767-9.377-.029-.989.083-1.07.973-.714l1.167-.704c-.211 5.023.51 6.548-.31 11.273-.28 1.616-2.02 2.254-3.354 1.235L225 63.795z" fill="#9C2AA0"/>
      <path d="M227.373 67.884c-3.41-1.272-6.669-2.65-8.69-4.908-.952-.537-.902-1.43.11-1.982 1.01-.554 2.459-1.353 3.41-.816l8.3 5.113c.95.537.419 1.12-.593 1.674l-.06-.57c-1.013.554-1.526 2.026-2.477 1.49" fill="#9C2AA0"/>
      <path d="M229.336 64.485L226.818 61c-4.344 6.876-7.56 1.654-8.818 1.003 1.983 1.998 4.732 3.376 7.752 4.585.927.561 2.49.547 3.476-.031.986-.579 1.034-1.511.108-2.072" fill="#FF9359"/>
      <path d="M219.687 44.07c-.741.843-.677 1.439-.687 2.733-.01 1.267.781 2.477 1.946 2.987L232.847 55s.853-4.673-1.469-6.451c-1.25-.958-3.19-2.482-4.712-3.683-2.237-1.766-5.265-2.742-6.979-.796" fill="#9C2AA0"/>
      <path d="M224.667 46.686L223 42l3.62 1.118 1.357 3.826c.282.628-2.142 2.154-3.31-.258" fill="#FFC2B0"/>
      <path d="M225 46.423c.04.103 1.042-.294.999-.423 0 0-.38.762-.875 1l-.124-.577z" fill="#EA8A6C"/>
      <path d="M231.03 51.133c.444 2.129 1.057 4.242 1.445 6.376.336 1.847.944 4.294.088 5.98-1.438 2.829-6.27 1.659-8.93 2.456-1.458.437-2.344-1.849-.89-2.284 1.435-.43 2.917-.56 4.449-.619 1.237-.047 2.934.164 3.28-1.208.387-1.537-.29-3.759-.634-5.352-.385-1.787-.868-3.56-1.241-5.35-.316-1.515 2.119-1.505 2.432 0M217.142 60.18c.726.376 1.057 1.217.735 1.87l-1.114 2.263c-.323.654-1.18.881-1.906.506-.725-.375-1.056-1.216-.734-1.87l1.115-2.262c.322-.654 1.179-.881 1.904-.506" fill="#FFC2B0"/>
      <g transform="translate(228 49)">
        <mask id="l" fill="#fff">
          <use xlink:href="#k"/>
        </mask>
        <path d="M.392 2.062l1.029 5.986c.726 1.682 4.81.709 4.35-.702L4.238 1.624C3.94.722 2.954.102 1.957.19.917.28.227 1.106.392 2.062" fill="#9C2AA0" mask="url(#l)"/>
      </g>
      <path d="M225.997 66.269l-1.012-.302-.328.132-.09-.167-9.052-4.892a.45.45 0 0 0-.401.016l-3.456 2.107-.006-.06-.652.272.03.279h.004a.154.154 0 0 0 .072.072l9.42 5.091c.012.006.02.02.024.037.197.75.526 1.421 1.14 1.032l3.828-2.345a.96.96 0 0 0 .482-.855l-.003-.417z" fill="#A8C4E5"/>
      <path d="M219.866 69.954l-10.774-5.831c-.125-.067-.122-.186.006-.264l4.578-2.795a.512.512 0 0 1 .459-.019l10.773 5.832c.125.067.122.186-.005.264l-4.579 2.794a.51.51 0 0 1-.458.02" fill="#E1EAF4"/>
      <path d="M220.716 64.99l-2.693-1.296c-.031-.015-.03-.041.001-.059l1.145-.62a.142.142 0 0 1 .114-.005l2.694 1.296c.031.015.03.041-.001.059l-1.145.62a.143.143 0 0 1-.115.005" fill="#A8C4E5"/>
      <path d="M219.18 62.914c-.072-.285-.322-.622-.56-.754l-11.027-6.108c-.099-.055-.179-.064-.234-.038h-.001l-.001.001a.129.129 0 0 0-.05.043l-.307.374.31-.03 1.655 6.605c.071.285.321.623.559.754l10.427 5.776.355.368.049.091c.203.044.645-.305.645-.305l-1.82-6.777z" fill="#FFF"/>
      <g transform="translate(207 56)">
        <mask id="n" fill="#fff">
          <use xlink:href="#m"/>
        </mask>
        <path d="M12.993 12.922L2.203 7.237c-.233-.122-.478-.436-.548-.701L.018.32C-.05.056.081-.06.313.062l10.79 5.685c.232.122.477.436.547.702l1.637 6.214c.07.266-.062.381-.294.259" fill="#AFAFAF" mask="url(#n)"/>
      </g>
      <path d="M213.991 62.793c.052.224-.126.274-.397.112-.271-.162-.533-.474-.585-.698-.052-.224.126-.274.397-.112.27.162.533.474.585.698" fill="#FFF"/>
      <path d="M220.116 66.203c-.3-.604.004-1.261.675-1.459l2.325-.687c.672-.198 1.468.135 1.768.74.3.604-.004 1.261-.676 1.46l-2.325.686c-.672.198-1.467-.135-1.767-.74" fill="#FFC2B0"/>
      <path d="M223.085 46.391c-.511.948 1.392 1.681 2.68 1.603.649-.04 1.616-.13 2.005-.51.365-.358.263-1.005-.081-1.349-.316-.314-1.109-.023-.79.294.182.18.291.627.007.783-.27.149-.982.208-1.327.21-.652.004-1.89-.361-1.612-.876.192-.355-.691-.507-.882-.155" fill="#FCFEFF"/>
      <path d="M223.975 44.896l-.894.09c-1.379.14-2.749-.794-3.046-2.074l-.978-4.227c-.296-1.28.589-2.442 1.968-2.58l.895-.091c1.378-.14 2.749.795 3.045 2.075l.978 4.227c.296 1.28-.59 2.441-1.968 2.58" fill="#FFC2B0"/>
      <path d="M223.163 39.492c-.872.527-1.669.34-2.8.008-1.226-.361-1.77-1.455-1.02-2.372.404-.496.65-1.022 1.611-1.527 2.725-1.433 6.094-.27 6.81 3.124 0 0 .889 3.745-.786 5.151-.3.252-.792.101-.965-.29 0 0 .9-1.094-.456-1.884-.41-.24-.877-.862-.942-1.43-.066-.575-.983-1.064-1.452-.78" fill="#1737A2"/>
      <path d="M226.848 42.744c-.199.369-.515.335-.707-.076-.192-.41-.187-1.043.011-1.412.199-.369.515-.335.707.075.192.411.187 1.044-.011 1.413" fill="#FFC2B0"/>
      <path d="M220 39.944c-.016.09 2.938.78 4.044 2.844.201.376.72.212.823-.177.187-.701.267-1.733-.384-2.705-1.132-1.688-4.363-.623-4.483.038" fill="#1737A2"/>
    </g>
    <g>
      <path d="M364.592 235.018l-118.909-68.693c-4.91-2.837-4.91-9.929 0-12.766l118.43-68.417a23.425 23.425 0 0 1 23.437 0l116.563 67.337c6.135 3.545 6.135 12.406 0 15.95l-115.267 66.59a24.242 24.242 0 0 1-24.254 0" fill="#D7D9D9" opacity=".244"/>
      <path d="M362.592 204.019l-118.909-68.693c-4.91-2.838-4.91-9.93 0-12.767l118.43-68.417a23.425 23.425 0 0 1 23.437 0l116.563 67.338c6.135 3.544 6.135 12.405 0 15.95l-115.267 66.589a24.242 24.242 0 0 1-24.254 0" fill="#D7D9D9"/>
      <path d="M362.592 196.019l-118.909-68.694c-4.91-2.837-4.91-9.928 0-12.766l118.43-68.417a23.422 23.422 0 0 1 23.437 0l116.563 67.338c6.135 3.545 6.135 12.405 0 15.95l-115.267 66.589a24.242 24.242 0 0 1-24.254 0" fill="#EBEBEB"/>
      <path d="M293.289 92.079c-.105-.973-.314-1.8-.438-2.764h-13.017c-.253.83.63 1.622.548 2.222-.29 2.126 1.5 7.15 1.5 7.15l.477 2.761.637 10.473s-.553 5.12-.875 9.178c-.05.624-.073 1.236-.074 1.837 0 .162.01.317.025.47.091 3.121 1.122 6.018 1.174 9.286l1.59.386s.608-5.383 1.236-10.141c.105-.806.212-1.591.317-2.331-.014.165-.028.33-.04.493a23.96 23.96 0 0 0-.074 1.837c0 .162.01.317.025.47.092 3.121 1.122 6.018 1.173 9.286l1.59.386s.61-5.383 1.237-10.141c.449-3.405.907-6.49 1.16-7.055.393-.879 1.1-8.481 1.84-13.829.294-2.038.205-7.973-.011-9.974" fill="#122D59"/>
      <path fill="#302E4F" d="M287.457 132.192l-.51 2.764h5.649l-3.102-1.382-.329-1.382h-1.708"/>
      <path d="M278.841 84.257s-.026 4.941.42 5.42l1.12 1.86 12.908.542.175-1.822.638-.424c.536-.356.8-1.002.667-1.63l-3.304-8.452s-.218-2.68-.047-3.985c.17-1.304-2.977-8.44-3.582-9.237-.605-.797-3.002-.942-4.018 0-1.017.941-3.778 5.07-4.012 5.94-.235.87-.965 11.788-.965 11.788" fill="#9C2AA0"/>
      <path d="M284.807 65.74c-1.345.324-7.163 3.692-7.707 4.778-.544 1.086-4.965 12.849-3.4 14.162 1.564 1.313 6.393-.605 6.393-.605l.641-6.973 4.073-11.362" fill="#9C2AA0"/>
      <path d="M287.79 97.437a.135.135 0 0 1-.103-.047 5.308 5.308 0 0 1-1.238-2.843.135.135 0 0 1 .12-.15c.07-.008.142.046.15.12a5.03 5.03 0 0 0 1.174 2.696.136.136 0 0 1-.103.224" fill="#714846"/>
      <path fill="#302E4F" d="M283.23 132.192l-.51 2.764h5.648l-3.102-1.382-.329-1.382h-1.708"/>
      <path d="M286.677 119.799a.135.135 0 0 1-.132-.168c.03-.118 2.904-11.766 3.399-13.965.49-2.183.223-11.358.22-11.45-.001-.036.012-.071.037-.098l1.384-1.464a.135.135 0 1 1 .197.186l-1.344 1.424c.024.849.255 9.311-.228 11.462-.496 2.201-3.372 13.852-3.4 13.97a.136.136 0 0 1-.133.103" fill="#714846"/>
      <path d="M280.734 90.546a.136.136 0 0 1 0-.272l12.038-.068h.001a.136.136 0 0 1 0 .27l-12.038.07" fill="#D1AC91"/>
      <path d="M303.78 58.097l.265-1.397s1.074-.998 1.295-1.163c.22-.166.911-1.874.967-2.04.055-.165-1.27-.248-1.27-.248s-.04-.818-.108-1.082c-.037-.143-.34-.783-.476-.349l-.295 1.263-.42.416c-.218.3-.47 1.571-.47 1.571l-.868 1.813c.464.4.923.807 1.38 1.216" fill="#E88265"/>
      <path d="M307.553 45.083l-2.13 6.733-.834 3.076.774.08 2.564-9.668c-.187-.11-.184-.115-.374-.22" fill="#F0DECB"/>
      <path d="M306.307 53.497c.153-.348-.188-1.429-.324-1.33-.136.1-.19.662-.19.662l.13.333s-.223-.081-.234-.002c-.012.08-.091.453-.091.453l-.036.715.745-.83" fill="#E88265"/>
      <path d="M293.298 73.844c1.381-1.397 5.196-4.761 6.426-6.481 1.163-1.626 4.654-9.646 4.654-9.646l-1.92-1.855-5.573 7.815s-3.952 2.433-6.072 3.316c1.288 2.333 1.058 4.6 2.485 6.85" fill="#9C2AA0"/>
      <path d="M285.942 65.877c10.86.732 11.435 1.69 8.455 5.133l-1.624 13.065-3.825-5.61-3.006-12.588" fill="#9C2AA0"/>
      <path fill="#E05552" d="M285.352 77.7l1.835-1.548-1.835 4.737-1.825.385 1.825-3.575"/>
      <path fill="#E05552" d="M281.701 79.565l.652-2.882 3 1.016-2.142 4.193-1.51-2.327"/>
      <path d="M278.929 81.235l1.218-1.111s.97-1.347 1.375-1.453l.18.894s2.952-.398 3.026-.275l.406.68-.888.308s.329.34.291.487c-.038.148-.182.329-.182.329s.129.374.137.757c.007.383-.715.035-.86.373-.145.338-2.27.573-2.57.573-.301 0-3.033.673-3.033.673l.9-2.235" fill="#E88265"/>
      <path d="M278.666 80.876h-.009l-1.837-.133a.137.137 0 0 1-.126-.145.133.133 0 0 1 .145-.125l1.837.132a.136.136 0 0 1-.01.27" fill="#D1AC91"/>
      <path d="M278.022 80.783a.135.135 0 0 1-.124-.19 34.49 34.49 0 0 0 2.31-7.481c.09-.482.167-.952.109-1.416-.062-.503-.29-.925-.626-1.157a.135.135 0 0 1-.034-.189.136.136 0 0 1 .19-.034c.398.276.668.767.74 1.346.063.503-.017.997-.11 1.5a34.74 34.74 0 0 1-2.331 7.54.135.135 0 0 1-.124.08M292.191 82.158a.137.137 0 0 1-.118-.068l-5.565-9.674a.136.136 0 0 1 .236-.135l5.565 9.674a.136.136 0 0 1-.118.203" fill="#D1AC91"/>
      <path d="M289.072 66.518l.387-1.89s1.209-.071 1.539-.704c.138-.264.037-1.186-.34-2.57-.04-.149.602-.036.557-.187-.087-.293-1.507-1.286-1.601-1.85-.348-2.07-.69-2.54-1.447-2.906-1.683-.813-6.732.49-6.615 2.846.116 2.355 1.204 3.334 3.329 6.027l-.074.456a2.166 2.166 0 0 0 2.494 2.48 2.166 2.166 0 0 0 1.77-1.702" fill="#E88265"/>
      <path d="M284.88 65.284l.53-2.498s-2.094-1.186-1.194-2.353c.9-1.166 3.572 2.737 3.572 2.737l.236-.58-1.208-2.531s.85-.785.67-1.799c0 0 2.356-.93 2.162-2.583-.194-1.653-7.3.853-8.515 2.249-1.214 1.395.64 4.17 3.748 7.358" fill="#302E4F"/>
      <g>
        <path d="M424.927 92.954l-10.504 8.234c-1.716 1.066-3.004.008-3.002-1.823l-.2-2.982c.001-1.832 1.407-4.202 3.122-5.268l10.592-6.58c1.715-1.066 3.117-.44 3.116 1.392l-.002 1.76c-.002 1.831-1.407 4.202-3.122 5.267" fill="#3A3A3A"/>
        <path d="M444.533 120.887a.63.63 0 0 0 .524-.717l-2.528-17.296a.623.623 0 0 0-.707-.531.63.63 0 0 0-.524.717l2.528 17.295c.05.345.367.583.707.532" fill="#283D75"/>
        <path d="M424.533 92.13l5.306-14.243c.873-2.343 3.301-3.368 5.258-2.22l7.826 4.594c1.41.828 2.2 2.585 1.973 4.395l-2.325 18.54-18.038-11.065z" fill="#3A3A3A"/>
        <path d="M439.811 106.152l-10.591 6.58c-1.716 1.066-3.042.566-2.947-1.111l.091-1.611c.095-1.678 1.576-3.922 3.292-4.987l10.591-6.58c1.716-1.066 3.042-.566 2.947 1.11l-.091 1.612c-.095 1.677-1.576 3.921-3.292 4.987" fill="#3A3A3A"/>
      </g>
      <g>
        <path d="M440.321 73.064c4.494 10.366-3.034 16.918-3.873 15.706-1.485-2.145 2.502-4.908.29-5.145-1.94-.208-3.799-1.302-5.563-2.609-1.327-.983-2.77-3.093-3.173-4.692-.445-1.774-1.41-3.732-1.266-5.414.139-1.636 2.03-3.242 2.298-4.828.128-.756 3.547-2.223 4.688-2.038.365.059-3.15 1.075-2.803 1.285l.639.387c1.82 1.1 4.924-.716 6.687.292 1.567.896 1.482 5.685 2.076 7.056" fill="#4265C2"/>
        <g transform="translate(418.5 89.076)">
          <mask id="p" fill="#fff">
            <use xlink:href="#o"/>
          </mask>
          <path d="M10.296.186C4.199 3.977.377 7.58.454 9.418c0 0 3.017-1.623 5.152.07 3.164 2.51-.135 4.35-.135 4.35s12.51 3.215 13.761-4.521c.793-4.903.026-6.09.026-6.09s-6.197 1.95-8.962-3.041" fill="#9C2AA0" mask="url(#p)"/>
        </g>
        <path d="M427.236 88.918a.694.694 0 0 0 .052.718c.543.764 2.087 2.506 5.16 3.074 2.631.486 4.29.373 5.112.24a.695.695 0 0 0 .587-.728l-.013-.219a.692.692 0 0 0-.764-.648c-1.517.164-5.073.369-7.123-.98-.946-.622-1.515-1.152-1.855-1.577a.691.691 0 0 0-1.156.12" fill="#283D75"/>
        <path d="M437.387 81.61c.099 4.308-1.253 7.998-2.803 11.952-.789 2.01 2.44 2.918 3.221.926 1.658-4.228 3.039-8.235 2.933-12.842-.05-2.151-3.401-2.198-3.351-.037" fill="#9C2AA0"/>
        <path d="M432.409 77.109l-.99-5.587 3.346 1.355.804 4.562c.189.748-2.353 2.546-3.16-.33" fill="#FFC2B0"/>
      </g>
      <path d="M433.997 140.416l-85.685-49.274c-2.945-1.693-8.137-1.479-11.538.477l-28.959 16.653c-3.4 1.956-3.773 4.941-.828 6.635l55.434 31.877-10.191 6.078 15.003 8.697 10.687-5.862 15.359 8.832 40.718-24.113z" fill="#D7D9D9"/>
      <g>
        <path d="M441.68 141.638l.187-.024c.56-.071.955-.581.883-1.138l-4.014-31.101a1.02 1.02 0 0 0-1.143-.88l-.187.024c-.56.072-.955.582-.883 1.139l4.014 31.1c.072.558.584.951 1.144.88M401.05 165.72a1.101 1.101 0 0 1-1.006-1.19l4.34-50.175a1.104 1.104 0 0 1 1.196-1.001 1.102 1.102 0 0 1 1.006 1.19l-4.34 50.174a1.103 1.103 0 0 1-1.196 1.002" fill="#4A4A4A"/>
        <path fill="#D7E8F7" d="M332.534 91.68h5.86v-3.388h-5.86z"/>
        <path d="M331.922 125.906l-.27-.05a.781.781 0 0 1-.638-.908l6.127-32.31a.796.796 0 0 1 .93-.625l.27.05a.781.781 0 0 1 .639.908l-6.128 32.31a.797.797 0 0 1-.93.625" fill="#4A4A4A"/>
        <path fill="#D7E8F7" d="M439.066 113.341h5.86v-3.388h-5.86z"/>
        <path d="M405.648 134.422l-72.367-41.596c-1.134-.652-.992-1.791.318-2.544l33.768-19.41c1.31-.753 3.291-.834 4.426-.182l72.367 41.596c1.134.652.992 1.791-.318 2.544l-33.768 19.41c-1.31.752-3.291.834-4.426.182" fill="#D7E8F7"/>
        <path d="M405.648 131.173l-73.133-41.938c-1.134-.653-.226-1.45 1.084-2.203l33.768-19.41c1.31-.752 3.291-.834 4.426-.182l72.367 41.596c1.134.652.992 1.791-.318 2.544l-33.768 19.41c-1.31.753-3.291.835-4.426.183" fill="#FDFFFF"/>
        <path d="M428.96 76.14c-2.224 3.357-5.575 5.531-7.897 8.803-1.95 2.746-4.506 4.203-7.418 5.874-1.482.85-.146 3.145 1.34 2.292 3.053-1.751 5.91-3.372 7.977-6.263 2.465-3.448 5.934-5.809 8.29-9.366.947-1.429-1.352-2.76-2.292-1.34" fill="#FFC2B0"/>
        <path d="M427.12 76.222c-1.832 2.705-3.975 5.122-5.911 7.743-1.356 1.834 1.447 3.996 2.804 2.162 1.936-2.62 4.079-5.038 5.912-7.742 1.275-1.882-1.524-4.051-2.804-2.163" fill="#9C2AA0"/>
        <path d="M437.816 86.553c.304-.123 1.228-2.25 1.228-2.25.378-1.313 1.928-2.224 1.129-3.895-.41-.858-5.388-4.361-8.336-5.521-1.429-.562-3.102-.071-3.752 1.285-1.363 2.845.325 15.263.437 13.412l7.057 3.674.923-5.013 1.314-1.692z" fill="#9C2AA0"/>
        <path d="M432.031 74.879s-2.972 2.272-.953 4.697c2.02 2.426 6.447-1.23 6.447-1.23-1.863-1.712-3.702-2.987-5.494-3.467" fill="#FFC2B0"/>
        <path d="M431.5 75.035l-1.003-.233a2.89 2.89 0 0 1-2.157-3.459l1.181-5.1a2.891 2.891 0 0 1 3.46-2.159l1.002.232a2.892 2.892 0 0 1 2.158 3.46l-1.181 5.1a2.892 2.892 0 0 1-3.46 2.159" fill="#FFC2B0"/>
        <path d="M432.92 65.74s1.147 4.119 2.419 5.303l-.337.784c-.34.79-.3 1.692.105 2.45l.167.313s7.481-4.84 2.181-9.907c-3.586-3.43-8.824-1.165-8.553 2.74l4.018-1.683z" fill="#4265C2"/>
        <path d="M435.426 90.89c-.298 6.03-6 8.117-11.252 8.422-1.696.099-1.738 2.755-.029 2.655 6.787-.393 13.56-3.444 13.937-11.049.084-1.708-2.571-1.734-2.656-.029" fill="#FFC2B0"/>
      </g>
      <g>
        <path d="M390.943 148.417l-4.732.978-.636 1.665c-.152 1.194-.144 1.83.636 2.459.657.53 1.996.12 2.696-.21l3.039-1.853c2.253-1.259 2.083-2.191 1.84-2.96-.361-.863-1.403-.663-2.843-.079" fill="#2C4482"/>
        <path d="M378.833 133.192c.657-.21 4.17.646 4.316.806.173.21.189.223.046.037.088.121.484.765.589.97.005.01.293.665.146.293.104.264.19.535.27.806.478 1.643.601 3.375.863 5.313.287 2.133.64 4.883.493 7.26-.079 1.28 1.132 2.373 2.34 2.373 1.332 0 1.899-1.07 1.978-2.355a45.268 45.268 0 0 0-.355-8.942c-.083-.602-.172-1.203-.26-1.804-.03-.206-.054-.413-.09-.618-.078-.456.096.586.035.255-.29-1.57-.038-3.388-.694-4.863-1.064-2.389-.843-1.971-2.722-2.718-3.415-1.357-12.068 6.197-11.032 5.452 0 0 2.594-1.79 4.077-2.265" fill="#C2E3FF"/>
        <path d="M368.916 137.143c2.276-1.527 4.79-2.88 7.237-4.103 1.926-.964 1.273-.77 3.343-1.346 1.267-.353 3.495 4.231 4.162-1.334-.224-2.476-1.444-3.62-3.186-4.065-2.196.647-4.354 1.52-6.412 2.516-2.545 1.232-5.154 2.658-7.506 4.235-2.5 1.677-.16 5.788 2.362 4.097" fill="#ACD3EF"/>
        <path d="M381.138 144.22l-4.308.887-.58 1.515c-.14 1.086-.133 1.664.578 2.237.597.482 1.817.11 2.454-.19l2.768-1.685c2.052-1.144 1.897-1.992 1.676-2.692-.328-.785-1.277-.604-2.588-.073" fill="#2C4482"/>
        <path d="M376.394 144.396c-.075 2.493 3.746 2.714 3.822.212M375.895 141.038c1.958-1.133 4.44-3.178 6.481-4.145 1.736-.823 2.2-1.721 3.973-2.057 1.275-.242 1.999-1.803 1.676-2.993-.368-1.356-1.674-1.942-2.952-1.7-.926.176-1.676.222-2.62.418-1.037.217-2.003.683-2.957 1.133-2.174 1.024-4.426 1.966-6.51 3.17-2.683 1.552-.268 5.758 2.422 4.202l.487 1.972z" fill="#C2E3FF"/>
        <g>
          <path d="M365.76 114.306c-.902.99-.875 1.628-.985 3.032-.107 1.373.694 2.603 1.971 3.036l12.724 4.314s3.56-5.016-.618-6.837c-2.173-.946-3.644-2.255-5.272-3.4-2.392-1.683-5.736-2.43-7.82-.145" fill="#9C2AA0"/>
          <path d="M364.521 136.376c-.85-.307-.617-12.263.392-20.44l14.892 6.88c-.923 4.954-1.198 9.072-1.078 13.99.075 3.087-3.135 5.138-5.865 3.766l-8.341-4.196z" fill="#9C2AA0"/>
          <path d="M378.822 122.514c1.655 1.277 3.005 3.058 4.76 4.184 1.205.773 3.193 1.109 4.364.089 3.28-2.86-4.391-7.45-6.167-8.346-1.604-.811-3.02 1.63-1.41 2.445 1.542.779 3.029 1.7 4.284 2.907.346.333.742 1.114 1.118 1.337.059.036.577 1.543.316-.44-.048-.358.433.06-.173-.122-.86-.258-1.329-.624-2.002-1.277-1.179-1.142-2.38-2.22-3.68-3.222-1.43-1.103-2.823 1.355-1.41 2.445" fill="#FFC2B0"/>
          <path d="M377.366 122.026l5.771 4.808c1.84 1.136 3.842-2.293 2.4-3.355l-5.65-5.055c-.924-.675-2.088-.57-2.691.242-.629.847-.708 2.533.17 3.36" fill="#9C2AA0"/>
          <path d="M372.397 115.247l.278-4.818 3.104 1.443-.158 4.37c.029.701-3.17.617-3.224-.995" fill="#FFC2B0"/>
          <path d="M376.447 102.737s2.676-.072 2.375 4.792c-.21 3.383-2.142 4.442-4.968 5.572-1.76.704-3.772-.494-3.752-2.185-.24-2.484-.09-4.782.838-6.703.025-2.038 1.354-1.22 3.744-1.186l1.763-.29z" fill="#FFC2B0"/>
          <path d="M376.597 112.557s3.36-1.006 3.365-5.702c.005-5.082-4.613-4.966-7.147-5.39-1.122-.189-1.896-.408-3.123.558-1.116.877-.277 3.083 1.222 3.325.595.097.21 1.711.293 2.28.148 1.012.727 1.541.888 2.523.153.93 1.386 2.454 2.243 2.616 1.527.287 2.26-.21 2.26-.21" fill="#715154"/>
          <path d="M371.115 109.396c-.122.795.235 1.512.797 1.6.062.01.123.012.184.006.494-.045.946-.577 1.054-1.286.122-.795-.235-1.511-.797-1.6-.562-.088-1.116.485-1.238 1.28" fill="#FFC2B0"/>
          <path d="M376.982 116.825c-3.416-.689-5.991 1.39-6.291-3.666.54-.29 1.177-.107 1.464.4.504.893 1.714 1.499 3.132 1.393.424-.032.816.182 1.006.549l.689 1.324z" fill="#FFF"/>
        </g>
      </g>
      <g>
        <path d="M354.117 156.155a.636.636 0 0 1-.54-.72l3.015-20.124a.64.64 0 0 1 .728-.535c.35.052.591.374.54.72l-3.015 20.124a.64.64 0 0 1-.728.535M368.9 164.713a.68.68 0 0 1-.578-.772l3.521-23.504a.686.686 0 0 1 .78-.572.68.68 0 0 1 .578.771l-3.52 23.504a.685.685 0 0 1-.78.573" fill="#283D75"/>
        <path d="M371.145 148.092l-14.465-8.3c-1.356-.776-2.106-2.32-2.106-2.32-.508-1.154.703-1.99 2.06-1.214l13.27 7.734c1.356.776 1.868 1.585 1.649 2.547 0 0 1.311 2.431-.408 1.553" fill="#3A3A3A"/>
        <path d="M354.582 137.263l-2.518-15.593c-.426-2.306 1.315-3.074 3.772-1.663l9.823 5.643c1.77 1.017 3.45 2.917 4.2 4.75l4.147 10.125c1.189 2.903-1.377 5.759-3.859 4.296l-15.565-7.558z" fill="#3A3A3A"/>
        <path d="M385.53 155.072l.052-.007a.632.632 0 0 0 .538-.717l-2.482-16.557a.636.636 0 0 0-.723-.532l-.052.008a.632.632 0 0 0-.537.717l2.481 16.557a.636.636 0 0 0 .724.531" fill="#283D75"/>
        <g>
          <path d="M383.75 141.943l-10.059 6.097c-1.629.988-2.888.524-2.798-1.03l.086-1.492c.09-1.554 1.497-3.634 3.126-4.622l10.06-6.097c1.629-.987 2.888-.524 2.798 1.03l-.086 1.493c-.09 1.554-1.497 3.634-3.126 4.621" fill="#3A3A3A"/>
        </g>
      </g>
      <g>
        <path fill="#A8C4E5" d="M422 105.445L411.96 111 395 101.785 405.186 96z"/>
        <path d="M426 102.986l-.004-.502-.622.25-.133-.318-15.566-9.34c-.187-.113-.518-.098-.734.032l-6.702 4.02v-.112l-1.239.518v.533h.009a.25.25 0 0 0 .118.138l16.197 9.72c.188.112.518.097.735-.033l7.762-4.657c.118-.07.178-.162.178-.248H426z" fill="#A8C4E5"/>
        <path d="M417.325 107.924l-16.198-9.718c-.188-.113-.164-.312.052-.441l7.762-4.657c.217-.13.547-.145.735-.032l16.197 9.719c.188.112.164.31-.052.44l-7.762 4.657c-.217.13-.547.145-.734.032" fill="#E1EAF4"/>
        <path d="M417.918 100.98l-3.888-2.592c-.045-.03-.039-.083.013-.117l1.863-1.242c.052-.035.131-.039.176-.009l3.888 2.592c.045.03.039.083-.013.118l-1.863 1.241c-.052.035-.131.039-.176.009" fill="#A8C4E5"/>
        <path d="M417.202 96.37c-.068-.427-.409-.933-.763-1.13l-16.443-9.162c-.146-.082-.271-.097-.363-.057h-.001l-.003.002a.23.23 0 0 0-.085.064l-.544.56.495-.043 1.563 9.907c.067.427.409.934.762 1.13l15.548 8.664.502.553.063.136c.314.067 1.067-.457 1.067-.457l-1.798-10.166z" fill="#FFF"/>
        <path d="M417.479 107.92l-16.164-9.212c-.348-.199-.684-.708-.75-1.137l-1.554-10.073c-.066-.43.162-.617.51-.419l16.164 9.213c.348.199.684.708.75 1.137l1.554 10.073c.066.43-.162.617-.51.419" fill="#283D75"/>
        <path d="M408.989 96.586c.1.448-.486.548-1.308.224-.823-.324-1.57-.949-1.67-1.396-.1-.448.486-.548 1.308-.224.823.324 1.57.949 1.67 1.396" fill="#FFF"/>
      </g>
    </g>
    <g>
      <path fill="#F0EFF4" d="M350 8l-37.132 21.85v33.325l3.21-13.027L350 29.85z"/>
      <path d="M346.075 14.78c-2.544 2.56-4.607 5.894-6.187 10-2.371 6.157-2.534 11.657-7.949 9.951-5.415-1.706-5.06-7.17-8.986-4.438-2.617 1.822-4.806 3.301-6.566 4.438" stroke="#FFA109" stroke-width="1.4"/>
      <path d="M344.325 26.367h-4.015c-.722 2.807-2.206 3.742-4.45 2.807-3.366-1.403-4.931-5.613-7.066-2.807-1.423 1.871-2.638 4.31-3.645 7.317v2.935l-3.305 2.258-5.492 2.708" stroke="#050056" stroke-width="1.4"/>
      <path fill="#D6D3DF" d="M350 7.762l-37.458 21.904v-8.404L350 0z"/>
    </g>
    <g>
      <path fill="#F0EFF4" d="M137 8l37.132 21.85v33.325l-3.21-13.027L137 29.85z"/>
      <path fill="#5ACFDD" d="M141 14l4.043 2.22v16.028l-4.043-2.1z"/>
      <path fill="#050056" d="M147 26l4.043 2.22v6.576l-4.043-2.1z"/>
      <path fill="#FFBD53" d="M159 29.95l4.043 2.22v10.626l-4.043-2.1z"/>
      <path fill="#F7E857" d="M153 24.61l4.043 2.22v11.966l-4.043-2.1z"/>
      <path fill="#D6D3DF" d="M137 7.762l37.458 21.904v-8.404L137 0z"/>
    </g>
  </g>
</svg>
